# This file uses centimeters as units for non-parametric coordinates.

mtllib Box_Choco.mtl
g default
v -0.908989 -0.020859 0.290893
v 0.653979 -0.020859 0.290893
v -0.908989 0.317989 0.290893
v 0.653979 0.317989 0.290893
v -0.908989 0.317989 -0.195943
v 0.653979 0.317989 -0.195943
v -0.908989 -0.020859 -0.195943
v 0.653979 -0.020859 -0.195943
vt 0.055199 0.020620
vt 0.055199 0.020620
vt 0.076223 0.658655
vt 0.923777 0.658655
vt 0.076223 0.976259
vt 0.923777 0.976259
vt 0.077905 0.341127
vt 0.931535 0.341127
vt 0.077905 0.658315
vt 0.931535 0.658315
vt 0.055199 0.342192
vt 0.055199 0.342192
vt 0.953881 0.342192
vt 0.953881 0.342192
vt 0.953881 0.020620
vt 0.953881 0.020620
vt 0.045390 0.278514
vt 0.045391 0.084419
vt 0.959125 0.084419
vt 0.959125 0.278514
vt 0.954058 0.084502
vt 0.954058 0.277682
vt 0.045942 0.277682
vt 0.045943 0.084502
vn 0.000000 0.000000 1.000000
vn 0.000000 0.000000 1.000000
vn 0.000000 0.000000 1.000000
vn 0.000000 0.000000 1.000000
vn 0.000000 1.000000 0.000000
vn 0.000000 1.000000 0.000000
vn 0.000000 1.000000 0.000000
vn 0.000000 1.000000 0.000000
vn 0.000000 0.000000 -1.000000
vn 0.000000 0.000000 -1.000000
vn 0.000000 0.000000 -1.000000
vn 0.000000 0.000000 -1.000000
vn 0.000000 -1.000000 0.000000
vn 0.000000 -1.000000 0.000000
vn 0.000000 -1.000000 0.000000
vn 0.000000 -1.000000 0.000000
vn 1.000000 0.000000 0.000000
vn 1.000000 0.000000 0.000000
vn 1.000000 0.000000 0.000000
vn 1.000000 0.000000 0.000000
vn -1.000000 0.000000 0.000000
vn -1.000000 0.000000 0.000000
vn -1.000000 0.000000 0.000000
vn -1.000000 0.000000 0.000000
s off
g pCube1
usemtl initialShadingGroup
f 1/21/1 2/22/2 4/23/3 3/24/4
f 3/3/5 4/4/6 6/6/7 5/5/8
f 5/17/9 6/18/10 8/19/11 7/20/12
f 7/7/13 8/8/14 2/10/15 1/9/16
f 2/2/17 8/15/18 6/14/19 4/11/20
f 7/16/21 1/1/22 3/12/23 5/13/24
