# This file uses centimeters as units for non-parametric coordinates.

mtllib Can_Beans.mtl
g default
v -0.113623 -0.421255 0.255202
v 0.058081 -0.421255 0.273249
v 0.207600 -0.421255 0.186924
v 0.277823 -0.421255 0.029200
v 0.241927 -0.421255 -0.139677
v 0.113623 -0.421255 -0.255202
v -0.058081 -0.421255 -0.273249
v -0.207600 -0.421255 -0.186924
v -0.277823 -0.421255 -0.029200
v -0.241927 -0.421255 0.139677
v -0.113623 0.421255 0.255202
v 0.058081 0.421255 0.273249
v 0.207600 0.421255 0.186924
v 0.277823 0.421255 0.029200
v 0.241927 0.421255 -0.139677
v 0.113623 0.421255 -0.255202
v -0.058081 0.421255 -0.273249
v -0.207600 0.421255 -0.186924
v -0.277823 0.421255 -0.029200
v -0.241927 0.421255 0.139677
v 0.000000 -0.421255 0.000000
v 0.000000 0.421255 0.000000
vt 0.395757 0.121669
vt 0.291971 0.046264
vt 0.163684 0.046264
vt 0.059898 0.121669
vt 0.020255 0.243677
vt 0.059898 0.365685
vt 0.163684 0.441090
vt 0.291971 0.441090
vt 0.395757 0.365685
vt 0.435399 0.243677
vt 0.011364 0.476181
vt 0.109091 0.476181
vt 0.206818 0.476181
vt 0.304546 0.476181
vt 0.402273 0.476181
vt 0.500000 0.476181
vt 0.597727 0.476181
vt 0.695455 0.476181
vt 0.793182 0.476181
vt 0.890909 0.476181
vt 0.988636 0.476181
vt 0.011364 0.990937
vt 0.109091 0.990937
vt 0.206818 0.990937
vt 0.304546 0.990937
vt 0.402273 0.990937
vt 0.500000 0.990937
vt 0.597727 0.990937
vt 0.695455 0.990937
vt 0.793182 0.990937
vt 0.890909 0.990937
vt 0.988636 0.990937
vt 0.885715 0.121519
vt 0.781928 0.046114
vt 0.653642 0.046114
vt 0.549856 0.121519
vt 0.510213 0.243527
vt 0.549856 0.365535
vt 0.653642 0.440940
vt 0.781929 0.440940
vt 0.885715 0.365535
vt 0.925357 0.243527
vt 0.227827 0.235374
vt 0.717785 0.235224
vn -0.104528 0.000000 0.994522
vn -0.104528 0.000000 0.994522
vn -0.104528 0.000000 0.994522
vn -0.104528 0.000000 0.994522
vn 0.500000 0.000000 0.866025
vn 0.500000 0.000000 0.866025
vn 0.500000 0.000000 0.866025
vn 0.500000 0.000000 0.866025
vn 0.913545 0.000000 0.406737
vn 0.913545 0.000000 0.406737
vn 0.913545 0.000000 0.406737
vn 0.913545 0.000000 0.406737
vn 0.978148 0.000000 -0.207912
vn 0.978148 0.000000 -0.207912
vn 0.978148 0.000000 -0.207912
vn 0.978148 0.000000 -0.207912
vn 0.669131 0.000000 -0.743145
vn 0.669131 0.000000 -0.743145
vn 0.669131 0.000000 -0.743145
vn 0.669131 0.000000 -0.743145
vn 0.104528 0.000000 -0.994522
vn 0.104528 0.000000 -0.994522
vn 0.104528 0.000000 -0.994522
vn 0.104528 0.000000 -0.994522
vn -0.500000 0.000000 -0.866025
vn -0.500000 0.000000 -0.866025
vn -0.500000 0.000000 -0.866025
vn -0.500000 0.000000 -0.866025
vn -0.913545 0.000000 -0.406737
vn -0.913545 0.000000 -0.406737
vn -0.913545 0.000000 -0.406737
vn -0.913545 0.000000 -0.406737
vn -0.978148 0.000000 0.207912
vn -0.978148 0.000000 0.207912
vn -0.978148 0.000000 0.207912
vn -0.978148 0.000000 0.207912
vn -0.669131 0.000000 0.743145
vn -0.669131 0.000000 0.743145
vn -0.669131 0.000000 0.743145
vn -0.669131 0.000000 0.743145
vn -0.000000 -1.000000 -0.000000
vn 0.000000 -1.000000 0.000000
vn 0.000000 -1.000000 0.000000
vn -0.000000 -1.000000 -0.000000
vn 0.000000 -1.000000 0.000000
vn 0.000000 -1.000000 0.000000
vn 0.000000 -1.000000 0.000000
vn 0.000000 -1.000000 0.000000
vn 0.000000 -1.000000 0.000000
vn 0.000000 -1.000000 0.000000
vn 0.000000 -1.000000 0.000000
vn -0.000000 1.000000 0.000000
vn -0.000000 1.000000 -0.000000
vn -0.000000 1.000000 0.000000
vn -0.000000 1.000000 -0.000000
vn 0.000000 1.000000 0.000000
vn -0.000000 1.000000 0.000000
vn -0.000000 1.000000 0.000000
vn -0.000000 1.000000 0.000000
vn -0.000000 1.000000 0.000000
vn -0.000000 1.000000 0.000000
vn -0.000000 1.000000 0.000000
s off
g pCylinder1
usemtl lambert3SG
f 1/11/1 2/12/2 12/23/3 11/22/4
f 2/12/5 3/13/6 13/24/7 12/23/8
f 3/13/9 4/14/10 14/25/11 13/24/12
f 4/14/13 5/15/14 15/26/15 14/25/16
f 5/15/17 6/16/18 16/27/19 15/26/20
f 6/16/21 7/17/22 17/28/23 16/27/24
f 7/17/25 8/18/26 18/29/27 17/28/28
f 8/18/29 9/19/30 19/30/31 18/29/32
f 9/19/33 10/20/34 20/31/35 19/30/36
f 10/20/37 1/21/38 11/32/39 20/31/40
s 1
f 2/2/41 1/1/42 21/43/43
f 3/3/44 2/2/41 21/43/43
f 4/4/45 3/3/44 21/43/43
f 5/5/46 4/4/45 21/43/43
f 6/6/47 5/5/46 21/43/43
f 7/7/48 6/6/47 21/43/43
f 8/8/49 7/7/48 21/43/43
f 9/9/50 8/8/49 21/43/43
f 10/10/51 9/9/50 21/43/43
f 1/1/42 10/10/51 21/43/43
s 2
f 11/41/52 12/40/53 22/44/54
f 12/40/53 13/39/55 22/44/54
f 13/39/55 14/38/56 22/44/54
f 14/38/56 15/37/57 22/44/54
f 15/37/57 16/36/58 22/44/54
f 16/36/58 17/35/59 22/44/54
f 17/35/59 18/34/60 22/44/54
f 18/34/60 19/33/61 22/44/54
f 19/33/61 20/42/62 22/44/54
f 20/42/62 11/41/52 22/44/54
