# This file uses centimeters as units for non-parametric coordinates.

mtllib Can_Coke0.mtl
g default
v 0.899180 -0.005591 -0.292161
v 0.764889 -0.005591 -0.555724
v 0.555724 -0.005591 -0.764889
v 0.292161 -0.005591 -0.899180
v -0.000000 -0.005591 -0.945454
v -0.292161 -0.005591 -0.899180
v -0.555724 -0.005591 -0.764889
v -0.764888 -0.005591 -0.555724
v -0.899180 -0.005591 -0.292161
v -0.945454 -0.005591 -0.000000
v -0.899180 -0.005591 0.292161
v -0.764888 -0.005591 0.555724
v -0.555724 -0.005591 0.764888
v -0.292161 -0.005591 0.899180
v -0.000000 -0.005591 0.945454
v 0.292161 -0.005591 0.899180
v 0.555724 -0.005591 0.764888
v 0.764888 -0.005591 0.555724
v 0.899180 -0.005591 0.292161
v 0.945454 -0.005591 -0.000000
v 0.899180 2.959675 -0.292161
v 0.764889 2.959675 -0.555724
v 0.555724 2.959675 -0.764889
v 0.292161 2.959675 -0.899180
v -0.000000 2.959675 -0.945454
v -0.292161 2.959675 -0.899180
v -0.555724 2.959675 -0.764889
v -0.764889 2.959675 -0.555724
v -0.899180 2.959675 -0.292161
v -0.945454 2.959675 -0.000000
v -0.899180 2.959675 0.292161
v -0.764888 2.959675 0.555724
v -0.555724 2.959675 0.764888
v -0.292161 2.959675 0.899180
v -0.000000 2.959675 0.945454
v 0.292161 2.959675 0.899180
v 0.555724 2.959675 0.764888
v 0.764888 2.959675 0.555724
v 0.899180 2.959675 0.292161
v 0.945454 2.959675 -0.000000
v -0.000000 -0.005591 -0.000000
v -0.000000 2.959675 -0.000000
vt 0.124195 -0.002041
vt 0.160143 -0.002098
vt 0.160642 0.482887
vt 0.124695 0.482945
vt 0.084348 -0.001977
vt 0.084846 0.483009
vt 0.044500 -0.001912
vt 0.044999 0.483074
vt 0.008552 -0.001854
vt 0.009052 0.483132
vt 0.750935 0.120365
vt 0.188671 -0.002145
vt 0.189170 0.482841
vt 0.750985 0.159208
vt 0.224618 -0.002204
vt 0.225118 0.482782
vt 0.264466 -0.002269
vt 0.264966 0.482718
vt 0.304315 -0.002333
vt 0.889279 0.262229
vt 0.795786 0.420014
vt 0.852217 0.261257
vt 0.762652 0.083408
vt 0.815874 0.420877
vt 0.819597 0.254922
vt 0.762794 0.196136
vt 0.405479 0.000731
vt 0.409736 0.485687
vt 0.445325 0.000180
vt 0.449582 0.485138
vt 0.485171 -0.000369
vt 0.489428 0.484587
vt 0.521116 -0.000865
vt 0.525373 0.484092
vt 0.815754 0.029082
vt 0.549642 -0.001258
vt 0.553899 0.483698
vt 0.851941 0.017030
vt 0.585587 -0.001754
vt 0.589845 0.483203
vt 0.625433 -0.002304
vt 0.629691 0.482652
vt 0.665278 -0.002854
vt 0.669537 0.482102
vt 0.701224 -0.003350
vt 0.705481 0.481607
vt 0.729751 -0.003744
vt 0.734008 0.481212
vt 0.735775 0.334795
vt 0.743998 0.313656
vt 0.810007 0.349246
vt 0.758595 0.296000
vt 0.734732 0.357349
vt 0.778140 0.283557
vt 0.740970 0.379109
vt 0.802385 0.277463
vt 0.753880 0.397947
vt 0.825778 0.278612
vt 0.772198 0.412017
vt 0.846048 0.286475
vt 0.785208 0.227531
vt 0.864366 0.300546
vt 0.890007 0.016980
vt 0.877276 0.319382
vt 0.840107 0.414935
vt 0.883515 0.341143
vt 0.859651 0.402492
vt 0.882472 0.363697
vt 0.874249 0.384836
vt 0.991273 0.120049
vt 0.991322 0.158892
vt 0.869146 0.141068
vt 0.979605 0.195851
vt 0.979464 0.083122
vt 0.957271 0.227305
vt 0.957049 0.051727
vt 0.926504 0.250177
vt 0.926225 0.028936
vt 0.784987 0.051953
vt 0.979464 0.083122
vt 0.869146 0.141068
vt 0.869146 0.141068
vt 0.869146 0.141068
vt 0.869146 0.141068
vt 0.869146 0.141068
vt 0.869146 0.141068
vt 0.869146 0.141068
vt 0.869146 0.141068
vt 0.869146 0.141068
vt 0.869146 0.141068
vt 0.869146 0.141068
vt 0.869146 0.141068
vt 0.869146 0.141068
vt 0.869146 0.141068
vt 0.869146 0.141068
vt 0.869146 0.141068
vt 0.869146 0.141068
vt 0.869146 0.141068
vt 0.869146 0.141068
vt 0.957049 0.051727
vt 0.926225 0.028936
vt 0.890007 0.016980
vt 0.851941 0.017030
vt 0.815754 0.029082
vt 0.784987 0.051953
vt 0.762652 0.083408
vt 0.750935 0.120365
vt 0.750985 0.159208
vt 0.762794 0.196136
vt 0.785208 0.227531
vt 0.377568 0.486449
vt 0.819597 0.254922
vt 0.342995 0.483922
vt 0.852217 0.261257
vt 0.303714 0.482655
vt 0.889279 0.262229
vt 0.926504 0.250177
vt 0.957271 0.227305
vt 0.979605 0.195851
vt 0.991322 0.158892
vt 0.991273 0.120049
vt 0.810007 0.349246
vt 0.810007 0.349246
vt 0.810007 0.349246
vt 0.810007 0.349246
vt 0.810007 0.349246
vt 0.809123 0.349246
vt 0.809123 0.349246
vt 0.809123 0.349246
vt 0.810007 0.349246
vt 0.810007 0.349246
vt 0.810007 0.349246
vt 0.810007 0.349246
vt 0.810007 0.349246
vt 0.810007 0.349246
vt 0.810007 0.349246
vt 0.810007 0.349246
vt 0.810007 0.349246
vt 0.810007 0.349246
vt 0.810007 0.349246
vt 0.084348 -0.001977
vt 0.758595 0.296000
vt 0.044500 -0.001912
vt 0.778140 0.283557
vt 0.802385 0.277463
vt 0.701224 -0.003350
vt 0.825778 0.278612
vt 0.665278 -0.002854
vt 0.846048 0.286475
vt 0.625433 -0.002304
vt 0.864366 0.300546
vt 0.585587 -0.001754
vt 0.877276 0.319382
vt 0.549642 -0.001258
vt 0.883515 0.341143
vt 0.521116 -0.000865
vt 0.882472 0.363697
vt 0.485171 -0.000369
vt 0.874249 0.384836
vt 0.445325 0.000180
vt 0.859651 0.402492
vt 0.405479 0.000731
vt 0.840107 0.414935
vt 0.372385 0.001386
vt 0.372385 0.001386
vt 0.815874 0.420877
vt 0.337783 -0.000546
vt 0.337783 -0.000546
vt 0.795786 0.420014
vt 0.304315 -0.002333
vt 0.772198 0.412017
vt 0.264466 -0.002269
vt 0.753880 0.397947
vt 0.224618 -0.002204
vt 0.740970 0.379109
vt 0.188671 -0.002145
vt 0.734732 0.357349
vt 0.160143 -0.002098
vt 0.735775 0.334795
vt 0.124195 -0.002041
vt 0.743998 0.313656
vt 0.084846 0.483009
vt 0.044999 0.483074
vt 0.705481 0.481607
vt 0.669537 0.482102
vt 0.629691 0.482652
vt 0.589845 0.483203
vt 0.553899 0.483698
vt 0.525373 0.484092
vt 0.489428 0.484587
vt 0.449582 0.485138
vt 0.409736 0.485687
vt 0.377568 0.486449
vt 0.342995 0.483922
vt 0.303714 0.482655
vt 0.264966 0.482718
vt 0.225118 0.482782
vt 0.189170 0.482841
vt 0.160642 0.482887
vt 0.124695 0.482945
vn 0.951057 0.000000 -0.309016
vn 0.809017 -0.000000 -0.587785
vn 0.809017 -0.000000 -0.587785
vn 0.951057 0.000000 -0.309016
vn 0.587785 -0.000000 -0.809017
vn 0.587785 -0.000000 -0.809017
vn 0.309017 0.000000 -0.951057
vn 0.309017 0.000000 -0.951057
vn -0.000000 0.000000 -1.000000
vn -0.000000 0.000000 -1.000000
vn -0.309017 -0.000000 -0.951057
vn -0.309017 -0.000000 -0.951057
vn -0.587785 -0.000000 -0.809017
vn -0.587786 -0.000000 -0.809017
vn -0.809017 0.000000 -0.587785
vn -0.809017 0.000000 -0.587785
vn -0.951057 0.000000 -0.309017
vn -0.951057 0.000000 -0.309017
vn -1.000000 0.000000 -0.000000
vn -1.000000 0.000000 -0.000000
vn -0.951057 0.000000 0.309017
vn -0.951057 0.000000 0.309017
vn -0.809017 -0.000000 0.587785
vn -0.809017 -0.000000 0.587785
vn -0.587785 0.000000 0.809017
vn -0.587785 0.000000 0.809017
vn -0.309017 0.000000 0.951057
vn -0.309017 0.000000 0.951057
vn 0.000000 0.000000 1.000000
vn 0.000000 0.000000 1.000000
vn 0.309017 -0.000000 0.951057
vn 0.309017 -0.000000 0.951057
vn 0.587785 -0.000000 0.809017
vn 0.587785 -0.000000 0.809017
vn 0.809017 -0.000000 0.587785
vn 0.809017 -0.000000 0.587785
vn 0.951057 -0.000000 0.309017
vn 0.951057 -0.000000 0.309017
vn 1.000000 -0.000000 0.000001
vn 1.000000 -0.000000 0.000001
vn 0.000000 -1.000000 -0.000000
vn 0.000000 -1.000000 0.000000
vn 0.000000 -1.000000 -0.000000
vn 0.000000 -1.000000 -0.000000
vn 0.000000 -1.000000 0.000000
vn 0.000000 -1.000000 0.000000
vn 0.000000 -1.000000 -0.000000
vn 0.000000 -1.000000 -0.000000
vn 0.000000 -1.000000 0.000000
vn 0.000000 -1.000000 0.000000
vn 0.000000 -1.000000 0.000000
vn 0.000000 -1.000000 0.000000
vn 0.000000 -1.000000 0.000000
vn 0.000000 -1.000000 0.000000
vn 0.000000 -1.000000 -0.000000
vn 0.000000 -1.000000 -0.000000
vn 0.000000 -1.000000 -0.000000
vn 0.000000 -1.000000 -0.000000
vn 0.000000 -1.000000 0.000000
vn 0.000000 -1.000000 0.000000
vn 0.000000 -1.000000 0.000000
vn 0.000000 1.000000 0.000000
vn 0.000000 1.000000 0.000000
vn 0.000000 1.000000 0.000000
vn 0.000000 1.000000 0.000000
vn 0.000000 1.000000 0.000000
vn 0.000000 1.000000 0.000000
vn 0.000000 1.000000 -0.000000
vn 0.000000 1.000000 0.000000
vn 0.000000 1.000000 0.000000
vn 0.000000 1.000000 0.000000
vn 0.000000 1.000000 0.000000
vn 0.000000 1.000000 0.000000
vn 0.000000 1.000000 0.000000
vn 0.000000 1.000000 0.000000
vn 0.000000 1.000000 0.000000
vn 0.000000 1.000000 0.000000
vn 0.000000 1.000000 -0.000000
vn 0.000000 1.000000 -0.000000
vn 0.000000 1.000000 0.000000
vn 0.000000 1.000000 0.000000
vn 0.000000 1.000000 0.000000
s 1
g pCylinder1
usemtl lambert5SG
f 1/180/1 2/2/2 22/199/3 21/4/4
f 2/178/2 3/12/5 23/198/6 22/3/3
f 3/176/5 4/15/7 24/197/8 23/13/6
f 4/174/7 5/17/9 25/196/10 24/16/8
f 5/172/9 6/19/11 26/195/12 25/18/10
f 6/170/11 7/167/13 27/194/14 26/115/12
f 7/168/13 8/164/15 28/193/16 27/113/14
f 8/165/15 9/27/17 29/192/18 28/111/16
f 9/162/17 10/29/19 30/191/20 29/28/18
f 10/160/19 11/31/21 31/190/22 30/30/20
f 11/158/21 12/33/23 32/189/24 31/32/22
f 12/156/23 13/36/25 33/188/26 32/34/24
f 13/154/25 14/39/27 34/187/28 33/37/26
f 14/152/27 15/41/29 35/186/30 34/40/28
f 15/150/29 16/43/31 36/185/32 35/42/30
f 16/148/31 17/45/33 37/184/34 36/44/32
f 17/146/33 18/47/35 38/48/36 37/46/34
f 18/9/35 19/7/37 39/183/38 38/10/36
f 19/143/37 20/5/39 40/182/40 39/8/38
f 20/141/39 1/1/1 21/200/4 40/6/40
s 2
f 2/49/41 1/181/42 41/122/43
f 3/53/44 2/179/41 41/123/43
f 4/55/45 3/177/44 41/124/43
f 5/57/46 4/175/45 41/125/43
f 6/59/47 5/173/46 41/126/43
f 7/21/48 6/171/47 41/127/43
f 8/24/49 7/169/48 41/128/43
f 9/65/50 8/166/49 41/129/43
f 10/67/51 9/163/50 41/130/43
f 11/69/52 10/161/51 41/131/43
f 12/68/53 11/159/52 41/132/43
f 13/66/54 12/157/53 41/133/43
f 14/64/55 13/155/54 41/134/43
f 15/62/56 14/153/55 41/135/43
f 16/60/57 15/151/56 41/136/43
f 17/58/58 16/149/57 41/137/43
f 18/56/59 17/147/58 41/138/43
f 19/54/60 18/145/59 41/139/43
f 20/52/61 19/144/60 41/140/43
f 1/50/42 20/142/61 41/51/43
s 3
f 21/70/62 22/120/63 42/98/64
f 22/71/63 23/119/65 42/97/64
f 23/73/65 24/118/66 42/96/64
f 24/75/66 25/117/67 42/95/64
f 25/77/67 26/116/68 42/94/64
f 26/20/68 27/114/69 42/93/64
f 27/22/69 28/112/70 42/92/64
f 28/25/70 29/110/71 42/91/64
f 29/61/71 30/109/72 42/90/64
f 30/26/72 31/108/73 42/89/64
f 31/14/73 32/107/74 42/88/64
f 32/11/74 33/106/75 42/87/64
f 33/23/75 34/105/76 42/86/64
f 34/79/76 35/104/77 42/85/64
f 35/35/77 36/103/78 42/84/64
f 36/38/78 37/102/79 42/83/64
f 37/63/79 38/101/80 42/82/64
f 38/78/80 39/100/81 42/81/64
f 39/76/81 40/80/82 42/72/64
f 40/74/82 21/121/62 42/99/64
