# This file uses centimeters as units for non-parametric coordinates.

mtllib Can_Rootbeer.mtl
g default
v -0.115410 -0.249646 0.083851
v -0.044083 -0.249646 0.135673
v 0.044083 -0.249646 0.135673
v 0.115410 -0.249646 0.083851
v 0.142655 -0.249646 -0.000000
v 0.115410 -0.249646 -0.083851
v 0.044083 -0.249646 -0.135673
v -0.044083 -0.249646 -0.135673
v -0.115410 -0.249646 -0.083851
v -0.142655 -0.249646 -0.000000
v -0.115410 0.249646 0.083851
v -0.044083 0.249646 0.135673
v 0.044083 0.249646 0.135673
v 0.115410 0.249646 0.083851
v 0.142655 0.249646 -0.000000
v 0.115410 0.249646 -0.083851
v 0.044083 0.249646 -0.135673
v -0.044083 0.249646 -0.135673
v -0.115410 0.249646 -0.083851
v -0.142655 0.249646 -0.000000
v 0.000000 -0.249646 0.000000
v 0.000000 0.249646 0.000000
vt 0.087821 0.877099
vt 0.147926 0.959826
vt 0.087821 0.774843
vt 0.245177 0.991424
vt 0.147926 0.692116
vt 0.342428 0.959826
vt 0.245177 0.660517
vt 0.402533 0.877099
vt 0.245177 0.825971
vt 0.402533 0.774843
vt 0.342428 0.692116
vt 0.905829 0.938549
vt 0.965933 0.855822
vt 0.808577 0.970148
vt 0.965933 0.753566
vt 0.711326 0.938549
vt 0.905829 0.670839
vt 0.651222 0.855822
vt 0.808578 0.639240
vt 0.808577 0.804694
vt 0.711326 0.670839
vt 0.651222 0.753566
vt 0.128826 0.040536
vt 0.245059 0.040536
vt 0.245059 0.613402
vt 0.128826 0.613402
vt 0.339093 0.040536
vt 0.339093 0.613402
vt 0.034791 0.040536
vt 0.034792 0.613402
vt 0.643394 0.040536
vt 0.737429 0.040536
vt 0.737429 0.613402
vt 0.643394 0.613402
vt 0.853661 0.040536
vt 0.853661 0.613402
vt 0.947696 0.040536
vt 0.947696 0.613402
vt 0.585278 0.613402
vt 0.397209 0.040536
vt 0.397209 0.613402
vt 0.585278 0.040536
vt 0.491244 0.040536
vt 0.491244 0.613402
vn -0.587785 0.000000 0.809017
vn -0.587785 0.000000 0.809017
vn -0.587785 0.000000 0.809017
vn -0.587785 0.000000 0.809017
vn 0.000000 0.000000 1.000000
vn 0.000000 0.000000 1.000000
vn 0.000000 0.000000 1.000000
vn 0.000000 0.000000 1.000000
vn 0.587785 0.000000 0.809017
vn 0.587785 0.000000 0.809017
vn 0.587785 0.000000 0.809017
vn 0.587785 0.000000 0.809017
vn 0.951057 0.000000 0.309017
vn 0.951057 0.000000 0.309017
vn 0.951057 0.000000 0.309017
vn 0.951057 0.000000 0.309017
vn 0.951056 0.000000 -0.309017
vn 0.951056 0.000000 -0.309017
vn 0.951056 0.000000 -0.309017
vn 0.951056 0.000000 -0.309017
vn 0.587785 0.000000 -0.809017
vn 0.587785 0.000000 -0.809017
vn 0.587785 0.000000 -0.809017
vn 0.587785 0.000000 -0.809017
vn -0.000000 0.000000 -1.000000
vn -0.000000 0.000000 -1.000000
vn -0.000000 0.000000 -1.000000
vn -0.000000 0.000000 -1.000000
vn -0.587785 0.000000 -0.809017
vn -0.587785 0.000000 -0.809017
vn -0.587785 0.000000 -0.809017
vn -0.587785 0.000000 -0.809017
vn -0.951057 0.000000 -0.309017
vn -0.951057 0.000000 -0.309017
vn -0.951057 0.000000 -0.309017
vn -0.951057 0.000000 -0.309017
vn -0.951057 0.000000 0.309017
vn -0.951057 0.000000 0.309017
vn -0.951057 0.000000 0.309017
vn -0.951057 0.000000 0.309017
vn 0.000000 -1.000000 -0.000000
vn 0.000000 -1.000000 -0.000000
vn -0.000000 -1.000000 0.000000
vn 0.000000 -1.000000 0.000000
vn 0.000000 -1.000000 0.000000
vn 0.000000 -1.000000 0.000000
vn -0.000000 -1.000000 0.000000
vn -0.000000 -1.000000 0.000000
vn 0.000000 -1.000000 0.000000
vn 0.000000 -1.000000 0.000000
vn 0.000000 -1.000000 0.000000
vn 0.000000 1.000000 -0.000000
vn 0.000000 1.000000 -0.000000
vn -0.000000 1.000000 0.000000
vn -0.000000 1.000000 0.000000
vn -0.000000 1.000000 0.000000
vn 0.000000 1.000000 -0.000000
vn -0.000000 1.000000 0.000000
vn -0.000000 1.000000 0.000000
vn 0.000000 1.000000 -0.000000
vn 0.000000 1.000000 -0.000000
vn 0.000000 1.000000 -0.000000
s off
g pCylinder1
usemtl lambert2SG
f 1/23/1 2/24/2 12/25/3 11/26/4
f 2/24/5 3/27/6 13/28/7 12/25/8
f 3/27/9 4/40/10 14/41/11 13/28/12
f 4/40/13 5/43/14 15/44/15 14/41/16
f 5/43/17 6/42/18 16/39/19 15/44/20
f 6/42/21 7/31/22 17/34/23 16/39/24
f 7/31/25 8/32/26 18/33/27 17/34/28
f 8/32/29 9/35/30 19/36/31 18/33/32
f 9/35/33 10/37/34 20/38/35 19/36/36
f 10/29/37 1/23/38 11/26/39 20/30/40
s 1
f 2/22/41 1/21/42 21/20/43
f 3/18/44 2/22/41 21/20/43
f 4/16/45 3/18/44 21/20/43
f 5/14/46 4/16/45 21/20/43
f 6/12/47 5/14/46 21/20/43
f 7/13/48 6/12/47 21/20/43
f 8/15/49 7/13/48 21/20/43
f 9/17/50 8/15/49 21/20/43
f 10/19/51 9/17/50 21/20/43
f 1/21/42 10/19/51 21/20/43
s 2
f 11/11/52 12/10/53 22/9/54
f 12/10/53 13/8/55 22/9/54
f 13/8/55 14/6/56 22/9/54
f 14/6/56 15/4/57 22/9/54
f 15/4/57 16/2/58 22/9/54
f 16/2/58 17/1/59 22/9/54
f 17/1/59 18/3/60 22/9/54
f 18/3/60 19/5/61 22/9/54
f 19/5/61 20/7/62 22/9/54
f 20/7/62 11/11/52 22/9/54
