# This file uses centimeters as units for non-parametric coordinates.

mtllib Can_Coke0.mtl
g default
v 0.131412 -0.244016 -0.095477
v 0.050195 -0.244016 -0.154485
v -0.050195 -0.244016 -0.154485
v -0.131412 -0.244016 -0.095477
v -0.162435 -0.244016 0.000000
v -0.131412 -0.244016 0.095477
v -0.050195 -0.244016 0.154485
v 0.050195 -0.244016 0.154485
v 0.131412 -0.244016 0.095477
v 0.162435 -0.244016 0.000000
v 0.131412 0.244016 -0.095477
v 0.050195 0.244016 -0.154485
v -0.050195 0.244016 -0.154485
v -0.131412 0.244016 -0.095477
v -0.162435 0.244016 0.000000
v -0.131412 0.244016 0.095477
v -0.050195 0.244016 0.154485
v 0.050195 0.244016 0.154485
v 0.131412 0.244016 0.095477
v 0.162435 0.244016 0.000000
v 0.000000 -0.244016 0.000000
v 0.000000 0.244016 0.000000
vt 0.870025 0.019944
vt 0.987896 0.182178
vt 0.870025 0.143879
vt 0.987896 0.105581
vt 0.942873 0.043613
vt 0.852627 0.409065
vt 0.879620 0.371913
vt 0.808952 0.423256
vt 0.879620 0.325990
vt 0.765277 0.409065
vt 0.852627 0.288838
vt 0.738284 0.371913
vt 0.808952 0.274647
vt 0.808952 0.348952
vt 0.765277 0.288838
vt 0.738284 0.325990
vt 0.752155 0.105581
vt 0.797178 0.244146
vt 0.752155 0.182178
vt 0.870025 0.267815
vt 0.942873 0.244146
vt 0.797178 0.043613
vt 0.229890 0.008290
vt 0.311216 0.008290
vt 0.311216 0.484459
vt 0.229890 0.484459
vt 0.377011 0.008290
vt 0.377011 0.484459
vt 0.164095 0.008290
vt 0.164095 0.484459
vt 0.009402 0.484459
vt 0.454357 0.008290
vt 0.454357 0.484459
vt 0.086749 0.484459
vt 0.531703 0.008290
vt 0.531703 0.484459
vt 0.579506 0.008290
vt 0.579506 0.484459
vt 0.086749 0.008290
vt 0.660833 0.008290
vt 0.660833 0.484459
vt 0.009402 0.008290
vt 0.726627 0.008290
vt 0.726627 0.484459
vn 0.587785 0.000000 -0.809017
vn 0.587785 0.000000 -0.809017
vn 0.587785 0.000000 -0.809017
vn 0.587785 0.000000 -0.809017
vn -0.000000 0.000000 -1.000000
vn -0.000000 0.000000 -1.000000
vn -0.000000 0.000000 -1.000000
vn -0.000000 0.000000 -1.000000
vn -0.587785 0.000000 -0.809017
vn -0.587785 0.000000 -0.809017
vn -0.587785 0.000000 -0.809017
vn -0.587785 0.000000 -0.809017
vn -0.951057 0.000000 -0.309017
vn -0.951057 0.000000 -0.309017
vn -0.951057 0.000000 -0.309017
vn -0.951057 0.000000 -0.309017
vn -0.951056 0.000000 0.309017
vn -0.951056 0.000000 0.309017
vn -0.951056 0.000000 0.309017
vn -0.951056 0.000000 0.309017
vn -0.587785 0.000000 0.809017
vn -0.587785 0.000000 0.809017
vn -0.587785 0.000000 0.809017
vn -0.587785 0.000000 0.809017
vn 0.000000 0.000000 1.000000
vn 0.000000 0.000000 1.000000
vn 0.000000 0.000000 1.000000
vn 0.000000 0.000000 1.000000
vn 0.587785 0.000000 0.809017
vn 0.587785 0.000000 0.809017
vn 0.587785 0.000000 0.809017
vn 0.587785 0.000000 0.809017
vn 0.951056 0.000000 0.309017
vn 0.951056 0.000000 0.309017
vn 0.951056 0.000000 0.309017
vn 0.951056 0.000000 0.309017
vn 0.951057 0.000000 -0.309017
vn 0.951057 0.000000 -0.309017
vn 0.951057 0.000000 -0.309017
vn 0.951057 0.000000 -0.309017
vn 0.000000 -1.000000 0.000000
vn 0.000000 -1.000000 0.000000
vn 0.000000 -1.000000 -0.000000
vn 0.000000 -1.000000 0.000000
vn 0.000000 -1.000000 0.000000
vn 0.000000 -1.000000 0.000000
vn 0.000000 -1.000000 -0.000000
vn 0.000000 -1.000000 -0.000000
vn 0.000000 -1.000000 0.000000
vn 0.000000 -1.000000 0.000000
vn 0.000000 -1.000000 0.000000
vn 0.000000 1.000000 0.000000
vn 0.000000 1.000000 0.000000
vn 0.000000 1.000000 0.000000
vn 0.000000 1.000000 0.000000
vn 0.000000 1.000000 -0.000000
vn 0.000000 1.000000 0.000000
vn 0.000000 1.000000 0.000000
vn 0.000000 1.000000 0.000000
vn 0.000000 1.000000 0.000000
vn 0.000000 1.000000 0.000000
vn 0.000000 1.000000 0.000000
s off
g pCylinder2
usemtl lambert5SG
f 1/29/1 2/23/2 12/26/3 11/30/4
f 2/23/5 3/24/6 13/25/7 12/26/8
f 3/24/9 4/27/10 14/28/11 13/25/12
f 4/27/13 5/32/14 15/33/15 14/28/16
f 5/32/17 6/35/18 16/36/19 15/33/20
f 6/35/21 7/37/22 17/38/23 16/36/24
f 7/37/25 8/40/26 18/41/27 17/38/28
f 8/40/29 9/43/30 19/44/31 18/41/32
f 9/42/33 10/39/34 20/34/35 19/31/36
f 10/39/37 1/29/38 11/30/39 20/34/40
s 1
f 2/16/41 1/15/42 21/14/43
f 3/12/44 2/16/41 21/14/43
f 4/10/45 3/12/44 21/14/43
f 5/8/46 4/10/45 21/14/43
f 6/6/47 5/8/46 21/14/43
f 7/7/48 6/6/47 21/14/43
f 8/9/49 7/7/48 21/14/43
f 9/11/50 8/9/49 21/14/43
f 10/13/51 9/11/50 21/14/43
f 1/15/42 10/13/51 21/14/43
s 2
f 11/5/52 12/4/53 22/3/54
f 12/4/53 13/2/55 22/3/54
f 13/2/55 14/21/56 22/3/54
f 14/21/56 15/20/57 22/3/54
f 15/20/57 16/18/58 22/3/54
f 16/18/58 17/19/59 22/3/54
f 17/19/59 18/17/60 22/3/54
f 18/17/60 19/22/61 22/3/54
f 19/22/61 20/1/62 22/3/54
f 20/1/62 11/5/52 22/3/54
