# This file uses centimeters as units for non-parametric coordinates.

mtllib Can_Beans.mtl
g default
v 0.287767 -0.225000 -0.128122
v 0.210776 -0.225000 -0.234091
v 0.097340 -0.225000 -0.299583
v -0.032926 -0.225000 -0.313274
v -0.157500 -0.225000 -0.272798
v -0.254840 -0.225000 -0.185152
v -0.308116 -0.225000 -0.065492
v -0.308116 -0.225000 0.065492
v -0.254840 -0.225000 0.185152
v -0.157500 -0.225000 0.272798
v -0.032926 -0.225000 0.313274
v 0.097340 -0.225000 0.299583
v 0.210776 -0.225000 0.234091
v 0.287767 -0.225000 0.128122
v 0.315000 -0.225000 0.000000
v 0.287767 0.225000 -0.128122
v 0.210776 0.225000 -0.234091
v 0.097340 0.225000 -0.299583
v -0.032926 0.225000 -0.313274
v -0.157500 0.225000 -0.272798
v -0.254840 0.225000 -0.185152
v -0.308116 0.225000 -0.065492
v -0.308116 0.225000 0.065492
v -0.254840 0.225000 0.185152
v -0.157500 0.225000 0.272798
v -0.032926 0.225000 0.313274
v 0.097340 0.225000 0.299583
v 0.210776 0.225000 0.234091
v 0.287767 0.225000 0.128122
v 0.315000 0.225000 0.000000
v 0.000000 -0.225000 0.000000
v 0.000000 0.225000 0.000000
vt 0.368396 0.721894
vt 0.322389 0.658571
vt 0.254603 0.619435
vt 0.176760 0.611253
vt 0.102318 0.635440
vt 0.044151 0.687814
vt 0.012315 0.759320
vt 0.012315 0.837592
vt 0.044151 0.909097
vt 0.102318 0.961471
vt 0.176760 0.985659
vt 0.254603 0.977477
vt 0.322389 0.938341
vt 0.368396 0.875017
vt 0.384670 0.798456
vt 0.021767 0.212115
vt 0.085531 0.212115
vt 0.149296 0.212115
vt 0.213060 0.212115
vt 0.276825 0.212115
vt 0.340589 0.212115
vt 0.404354 0.212115
vt 0.468118 0.212115
vt 0.531883 0.212115
vt 0.595647 0.212115
vt 0.659411 0.212115
vt 0.723176 0.212115
vt 0.786940 0.212115
vt 0.850705 0.212115
vt 0.914469 0.212115
vt 0.978233 0.212115
vt 0.021767 0.515336
vt 0.085531 0.515336
vt 0.149296 0.515336
vt 0.213060 0.515336
vt 0.276825 0.515336
vt 0.340589 0.515336
vt 0.404354 0.515336
vt 0.468118 0.515336
vt 0.531883 0.515336
vt 0.595647 0.515336
vt 0.659411 0.515336
vt 0.723176 0.515336
vt 0.786940 0.515336
vt 0.850705 0.515336
vt 0.914469 0.515336
vt 0.978233 0.515336
vt 0.369243 0.726658
vt 0.323236 0.663335
vt 0.255451 0.624199
vt 0.177607 0.616017
vt 0.103166 0.640204
vt 0.044999 0.692579
vt 0.013162 0.764084
vt 0.013162 0.842356
vt 0.044999 0.913861
vt 0.103166 0.966235
vt 0.177607 0.990423
vt 0.255451 0.982241
vt 0.323236 0.943105
vt 0.369243 0.879782
vt 0.385517 0.803220
vt 0.196436 0.790926
vt 0.197283 0.795690
vn 0.913545 0.000000 -0.406737
vn 0.913545 0.000000 -0.406737
vn 0.669131 0.000000 -0.743145
vn 0.669131 0.000000 -0.743145
vn 0.309017 0.000000 -0.951056
vn 0.309017 0.000000 -0.951056
vn -0.104528 0.000000 -0.994522
vn -0.104528 0.000000 -0.994522
vn -0.500000 0.000000 -0.866025
vn -0.500000 0.000000 -0.866025
vn -0.809017 0.000000 -0.587785
vn -0.809017 0.000000 -0.587785
vn -0.978148 0.000000 -0.207912
vn -0.978148 0.000000 -0.207912
vn -0.978148 0.000000 0.207912
vn -0.978148 0.000000 0.207912
vn -0.809017 0.000000 0.587785
vn -0.809017 0.000000 0.587785
vn -0.500000 0.000000 0.866025
vn -0.500000 0.000000 0.866025
vn -0.104529 0.000000 0.994522
vn -0.104529 0.000000 0.994522
vn 0.309017 0.000000 0.951057
vn 0.309017 0.000000 0.951057
vn 0.669131 0.000000 0.743145
vn 0.669131 0.000000 0.743145
vn 0.913545 0.000000 0.406737
vn 0.913545 0.000000 0.406737
vn 1.000000 0.000000 -0.000000
vn 1.000000 0.000000 -0.000000
vn 0.000000 -1.000000 0.000000
vn 0.000000 -1.000000 0.000000
vn 0.000000 -1.000000 0.000000
vn 0.000000 -1.000000 0.000000
vn 0.000000 -1.000000 0.000000
vn 0.000000 -1.000000 0.000000
vn 0.000000 -1.000000 0.000000
vn 0.000000 -1.000000 0.000000
vn 0.000000 -1.000000 0.000000
vn 0.000000 -1.000000 0.000000
vn 0.000000 -1.000000 0.000000
vn 0.000000 -1.000000 0.000000
vn 0.000000 -1.000000 0.000000
vn 0.000000 -1.000000 0.000000
vn 0.000000 -1.000000 0.000000
vn 0.000000 -1.000000 0.000000
vn 0.000000 1.000000 0.000000
vn 0.000000 1.000000 0.000000
vn 0.000000 1.000000 0.000000
vn 0.000000 1.000000 0.000000
vn 0.000000 1.000000 0.000000
vn 0.000000 1.000000 0.000000
vn 0.000000 1.000000 0.000000
vn 0.000000 1.000000 0.000000
vn 0.000000 1.000000 0.000000
vn 0.000000 1.000000 0.000000
vn 0.000000 1.000000 0.000000
vn 0.000000 1.000000 0.000000
vn 0.000000 1.000000 0.000000
vn 0.000000 1.000000 0.000000
vn 0.000000 1.000000 0.000000
vn 0.000000 1.000000 0.000000
s 1
g pCylinder1
usemtl lambert2SG
f 16/32/1 1/16/2 2/17/3 17/33/4
f 17/33/4 2/17/3 3/18/5 18/34/6
f 18/34/6 3/18/5 4/19/7 19/35/8
f 19/35/8 4/19/7 5/20/9 20/36/10
f 20/36/10 5/20/9 6/21/11 21/37/12
f 21/37/12 6/21/11 7/22/13 22/38/14
f 22/38/14 7/22/13 8/23/15 23/39/16
f 23/39/16 8/23/15 9/24/17 24/40/18
f 24/40/18 9/24/17 10/25/19 25/41/20
f 25/41/20 10/25/19 11/26/21 26/42/22
f 26/42/22 11/26/21 12/27/23 27/43/24
f 27/43/24 12/27/23 13/28/25 28/44/26
f 28/44/26 13/28/25 14/29/27 29/45/28
f 29/45/28 14/29/27 15/30/29 30/46/30
f 30/46/30 15/30/29 1/31/2 16/47/1
s 2
f 2/2/31 1/1/32 31/63/33 3/3/34
f 4/4/35 3/3/34 31/63/33 5/5/36
f 6/6/37 5/5/36 31/63/33 7/7/38
f 8/8/39 7/7/38 31/63/33 9/9/40
f 10/10/41 9/9/40 31/63/33 11/11/42
f 12/12/43 11/11/42 31/63/33 13/13/44
f 14/14/45 13/13/44 31/63/33
f 15/15/46 14/14/45 31/63/33 1/1/32
s 3
f 32/64/47 16/61/48 17/60/49 18/59/50
f 32/64/47 18/59/50 19/58/51 20/57/52
f 32/64/47 20/57/52 21/56/53 22/55/54
f 32/64/47 22/55/54 23/54/55 24/53/56
f 32/64/47 24/53/56 25/52/57 26/51/58
f 32/64/47 26/51/58 27/50/59 28/49/60
f 28/49/60 29/48/61 32/64/47
f 32/64/47 29/48/61 30/62/62 16/61/48
