# This file uses centimeters as units for non-parametric coordinates.

mtllib CashierTable.mtl
g default
v -1.937451 0.002945 0.126434
v -0.693678 0.002945 0.126434
v -1.937451 0.375982 0.126434
v -0.693678 0.375982 0.126434
v -1.937451 0.375982 -3.035167
v 1.894706 0.375982 -3.037780
v -1.937451 0.002945 -3.035167
v 1.894706 0.002945 -3.037780
v -1.937451 0.375982 -2.737487
v -1.937451 0.002945 -2.737487
v 1.894706 0.002945 -2.740099
v 1.894706 0.375982 -2.740099
v 1.894706 1.556068 -2.740099
v -1.937451 1.556068 -2.737487
v 1.894706 1.556068 -3.037780
v -1.937451 1.556068 -3.035167
v -1.937451 3.109192 0.126434
v -0.693678 3.109192 0.126434
v -0.693678 2.685104 0.126434
v -1.937451 2.685104 0.126434
v 1.894706 2.685104 -2.740099
v -1.937451 2.685104 -2.737487
v -1.937451 2.685104 -3.035167
v 1.894706 2.685104 -3.037780
v 1.894706 3.109192 -3.037780
v -1.937451 3.109192 -3.035167
v -1.937451 3.109192 -2.737487
v 1.894706 3.109192 -2.740099
v -1.937451 1.556068 -2.737487
v 1.894706 1.556068 -2.740099
v 1.894706 1.556068 -3.037780
v -1.937451 1.556068 -3.035167
v -1.937451 0.002945 0.126434
v -0.693678 0.002945 0.126434
v -0.693678 0.375982 0.126434
v -1.937451 0.375982 0.126434
v -0.693678 0.375982 2.984230
v -1.937451 0.375982 2.984230
v -1.937451 0.375982 3.288039
v -0.693678 0.375982 3.288039
v -0.693678 0.002945 3.288039
v -1.937451 0.002945 3.288039
v -1.937451 0.002945 2.984230
v -0.693678 0.002945 2.984230
v -1.937451 1.556068 2.984230
v -0.693678 1.556068 2.984230
v -0.693678 1.556068 3.288039
v -1.937451 1.556068 3.288039
v -1.937451 3.109192 0.126434
v -1.937451 2.685104 0.126434
v -0.693678 2.685104 0.126434
v -0.693678 3.109192 0.126434
v -1.937451 2.685104 2.984230
v -0.693678 2.685104 2.984230
v -1.937451 2.685104 3.288039
v -1.937451 3.109192 3.288039
v -0.693678 3.109192 3.288039
v -0.693678 2.685104 3.288039
v -1.937451 3.109192 2.984230
v -0.693678 3.109192 2.984230
v -1.937451 1.556068 2.984230
v -1.937451 1.556068 3.288039
v -0.693678 1.556068 3.288039
v -0.693678 1.556068 2.984230
v 1.894706 0.375982 -2.266488
v 1.894706 0.002945 -2.270877
v 1.894706 2.685104 -2.238717
v 1.894706 3.109192 -2.234328
vt 0.375000 0.000000
vt 0.625000 0.000000
vt 0.625000 0.250000
vt 0.375000 0.250000
vt 0.375000 0.455630
vt 0.625000 0.334640
vt 0.625000 0.455630
vt 0.375000 0.500000
vt 0.625000 0.500000
vt 0.625000 0.750000
vt 0.375000 0.750000
vt 0.375000 0.794370
vt 0.625000 1.000000
vt 0.375000 1.000000
vt 0.709955 0.000000
vt 0.709640 0.250000
vt 0.169370 0.000000
vt 0.169370 0.250000
vt 0.125000 0.000000
vt 0.125000 0.250000
vt 0.625000 0.794370
vt 0.830630 0.250000
vt 0.830630 0.000000
vt 0.875000 0.000000
vt 0.875000 0.250000
vt 0.375000 0.455630
vt 0.625000 0.455630
vt 0.625000 0.500000
vt 0.375000 0.500000
vt 0.375000 0.000000
vt 0.375000 0.250000
vt 0.625000 0.250000
vt 0.625000 0.000000
vt 0.375000 0.455630
vt 0.375000 0.500000
vt 0.375000 0.750000
vt 0.625000 0.750000
vt 0.625000 0.500000
vt 0.375000 0.794370
vt 0.625000 0.917669
vt 0.625000 0.794370
vt 0.707646 0.250000
vt 0.707331 0.000000
vt 0.169370 0.000000
vt 0.169370 0.250000
vt 0.125000 0.000000
vt 0.125000 0.250000
vt 0.830630 0.250000
vt 0.875000 0.250000
vt 0.875000 0.000000
vt 0.830630 0.000000
vt 0.375000 0.455630
vt 0.375000 0.500000
vt 0.625000 0.500000
vt 0.625000 0.455630
vt 0.625000 0.455630
vt 0.375000 0.000000
vt 0.375000 0.250000
vt 0.625000 0.250000
vt 0.625000 0.000000
vt 0.375000 0.455630
vt 0.625000 0.455630
vt 0.375000 0.500000
vt 0.375000 0.750000
vt 0.625000 0.750000
vt 0.625000 0.500000
vt 0.375000 0.794370
vt 0.375000 1.000000
vt 0.625000 1.000000
vt 0.625000 0.794370
vt 0.830630 0.250000
vt 0.830630 0.000000
vt 0.169370 0.000000
vt 0.169370 0.250000
vt 0.125000 0.000000
vt 0.125000 0.250000
vt 0.875000 0.250000
vt 0.875000 0.000000
vt 0.375000 0.455630
vt 0.375000 0.500000
vt 0.625000 0.500000
vt 0.625000 0.455630
vt 0.375000 0.000000
vt 0.625000 0.000000
vt 0.625000 0.250000
vt 0.375000 0.250000
vt 0.625000 0.455630
vt 0.375000 0.455630
vt 0.375000 0.500000
vt 0.625000 0.500000
vt 0.625000 0.750000
vt 0.375000 0.750000
vt 0.375000 0.794370
vt 0.625000 0.794370
vt 0.625000 1.000000
vt 0.375000 1.000000
vt 0.830630 0.000000
vt 0.830630 0.250000
vt 0.169370 0.000000
vt 0.169370 0.250000
vt 0.125000 0.000000
vt 0.125000 0.250000
vt 0.875000 0.000000
vt 0.875000 0.250000
vt 0.375000 0.455630
vt 0.625000 0.455630
vt 0.625000 0.500000
vt 0.375000 0.500000
vt 0.375000 1.000000
vt 0.625000 1.000000
vt 0.625000 0.332646
vt 0.625000 0.915045
vn 0.000000 0.000000 1.000000
vn 0.000000 0.000000 1.000000
vn 0.000000 0.000000 1.000000
vn 0.000000 0.000000 1.000000
vn 0.000000 1.000000 0.000000
vn 0.000000 1.000000 0.000000
vn 0.000000 1.000000 0.000000
vn -0.250663 0.000000 -0.968074
vn -0.250663 0.000000 -0.968074
vn -0.250663 0.000000 -0.968074
vn -0.250663 0.000000 -0.968074
vn 0.000000 -1.000000 0.000000
vn 0.000000 -1.000000 0.000000
vn 0.000000 -1.000000 0.000000
vn 0.679167 -0.004318 0.733971
vn 0.845261 -0.003143 0.534345
vn 0.843312 -0.003162 0.537414
vn 0.679167 -0.004318 0.733971
vn -1.000000 0.000000 0.000000
vn -1.000000 0.000000 0.000000
vn -1.000000 0.000000 0.000000
vn -1.000000 0.000000 0.000000
vn -1.000000 0.000000 0.000000
vn -1.000000 0.000000 0.000000
vn -1.000000 0.000000 0.000000
vn -1.000000 0.000000 0.000000
vn 0.000000 -1.000000 0.000000
vn 0.000000 -1.000000 0.000000
vn 0.000000 -1.000000 0.000000
vn 0.000000 -1.000000 0.000000
vn 1.000000 0.000000 0.000000
vn 1.000000 0.000000 0.000000
vn 1.000000 0.000000 0.000000
vn 1.000000 0.000000 0.000000
vn 0.000000 1.000000 0.000000
vn 0.000000 1.000000 0.000000
vn 0.000000 1.000000 0.000000
vn 0.000000 1.000000 0.000000
vn 0.250663 0.000000 0.968074
vn 0.250663 0.000000 0.968074
vn 0.250663 0.000000 0.968074
vn 0.250663 0.000000 0.968074
vn 1.000000 0.000000 0.000000
vn 1.000000 0.000000 0.000000
vn 1.000000 0.000000 0.000000
vn 1.000000 0.000000 0.000000
vn -0.250663 0.000000 -0.968074
vn -0.250663 0.000000 -0.968074
vn -0.250663 0.000000 -0.968074
vn -0.250663 0.000000 -0.968074
vn -1.000000 0.000000 0.000000
vn -1.000000 0.000000 0.000000
vn -1.000000 0.000000 0.000000
vn -1.000000 0.000000 0.000000
vn 0.000000 0.000000 1.000000
vn 0.000000 0.000000 1.000000
vn 0.000000 0.000000 1.000000
vn 0.000000 0.000000 1.000000
vn 0.000000 -1.000000 0.000000
vn 0.000000 -1.000000 0.000000
vn 0.000000 -1.000000 0.000000
vn -0.250663 0.000000 -0.968074
vn -0.250663 0.000000 -0.968074
vn -0.250663 0.000000 -0.968074
vn -0.250663 0.000000 -0.968074
vn 0.000000 1.000000 0.000000
vn 0.000000 1.000000 0.000000
vn 0.000000 1.000000 0.000000
vn 0.674209 -0.004345 0.738528
vn 0.674209 -0.004345 0.738528
vn 0.845276 -0.003143 0.534320
vn 0.843297 -0.003162 0.537439
vn -1.000000 0.000000 0.000000
vn -1.000000 0.000000 0.000000
vn -1.000000 0.000000 0.000000
vn -1.000000 0.000000 0.000000
vn -1.000000 0.000000 0.000000
vn -1.000000 0.000000 0.000000
vn -1.000000 0.000000 0.000000
vn -1.000000 0.000000 0.000000
vn 0.000000 1.000000 0.000000
vn 0.000000 1.000000 0.000000
vn 0.000000 1.000000 0.000000
vn 0.000000 1.000000 0.000000
vn 1.000000 0.000000 0.000000
vn 1.000000 0.000000 0.000000
vn 1.000000 0.000000 0.000000
vn 1.000000 0.000000 0.000000
vn 0.000000 -1.000000 0.000000
vn 0.000000 -1.000000 0.000000
vn 0.000000 -1.000000 0.000000
vn 0.000000 -1.000000 0.000000
vn 0.250663 0.000000 0.968074
vn 0.250663 0.000000 0.968074
vn 0.250663 0.000000 0.968074
vn 0.250663 0.000000 0.968074
vn 1.000000 0.000000 0.000000
vn 1.000000 0.000000 0.000000
vn 1.000000 0.000000 0.000000
vn 1.000000 0.000000 0.000000
vn -0.250663 0.000000 -0.968074
vn -0.250663 0.000000 -0.968074
vn -0.250663 0.000000 -0.968074
vn -0.250663 0.000000 -0.968074
vn -1.000000 0.000000 0.000000
vn -1.000000 0.000000 0.000000
vn -1.000000 0.000000 0.000000
vn -1.000000 0.000000 0.000000
vn 0.000000 0.000000 -1.000000
vn 0.000000 0.000000 -1.000000
vn 0.000000 0.000000 -1.000000
vn 0.000000 0.000000 -1.000000
vn 0.000000 1.000000 0.000000
vn 0.000000 1.000000 0.000000
vn 0.000000 1.000000 0.000000
vn 0.000000 1.000000 0.000000
vn 0.000000 0.000000 1.000000
vn 0.000000 0.000000 1.000000
vn 0.000000 0.000000 1.000000
vn 0.000000 0.000000 1.000000
vn 0.000000 -1.000000 0.000000
vn 0.000000 -1.000000 0.000000
vn 0.000000 -1.000000 0.000000
vn 0.000000 -1.000000 0.000000
vn 1.000000 0.000000 0.000000
vn 1.000000 0.000000 0.000000
vn 1.000000 0.000000 0.000000
vn 1.000000 0.000000 0.000000
vn -1.000000 0.000000 0.000000
vn -1.000000 0.000000 0.000000
vn -1.000000 0.000000 0.000000
vn -1.000000 0.000000 0.000000
vn -1.000000 0.000000 0.000000
vn -1.000000 0.000000 0.000000
vn -1.000000 0.000000 0.000000
vn -1.000000 0.000000 0.000000
vn 0.000000 -1.000000 0.000000
vn 0.000000 -1.000000 0.000000
vn 0.000000 -1.000000 0.000000
vn 0.000000 -1.000000 0.000000
vn 1.000000 0.000000 0.000000
vn 1.000000 0.000000 0.000000
vn 1.000000 0.000000 0.000000
vn 1.000000 0.000000 0.000000
vn 0.000000 1.000000 0.000000
vn 0.000000 1.000000 0.000000
vn 0.000000 1.000000 0.000000
vn 0.000000 1.000000 0.000000
vn 0.000000 0.000000 -1.000000
vn 0.000000 0.000000 -1.000000
vn 0.000000 0.000000 -1.000000
vn 0.000000 0.000000 -1.000000
vn 1.000000 0.000000 0.000000
vn 1.000000 0.000000 0.000000
vn 1.000000 0.000000 0.000000
vn 1.000000 0.000000 0.000000
vn 0.000000 0.000000 1.000000
vn 0.000000 0.000000 1.000000
vn 0.000000 0.000000 1.000000
vn 0.000000 0.000000 1.000000
vn -1.000000 0.000000 0.000000
vn -1.000000 0.000000 0.000000
vn -1.000000 0.000000 0.000000
vn -1.000000 0.000000 0.000000
vn 0.000000 0.000000 -1.000000
vn 0.000000 0.000000 -1.000000
vn 0.000000 0.000000 -1.000000
vn 0.000000 0.000000 -1.000000
vn 0.000000 -1.000000 0.000000
vn 0.000000 -1.000000 0.000000
vn 0.000000 -1.000000 0.000000
vn 0.000000 -1.000000 0.000000
vn 0.000000 0.000000 1.000000
vn 0.000000 0.000000 1.000000
vn 0.000000 0.000000 1.000000
vn 0.000000 0.000000 1.000000
vn 0.000000 1.000000 0.000000
vn 0.000000 1.000000 0.000000
vn 0.000000 1.000000 0.000000
vn 0.000000 1.000000 0.000000
vn 1.000000 0.000000 0.000000
vn 1.000000 0.000000 0.000000
vn 1.000000 0.000000 0.000000
vn 1.000000 0.000000 0.000000
vn -1.000000 0.000000 0.000000
vn -1.000000 0.000000 0.000000
vn -1.000000 0.000000 0.000000
vn -1.000000 0.000000 0.000000
vn -1.000000 0.000000 0.000000
vn -1.000000 0.000000 0.000000
vn -1.000000 0.000000 0.000000
vn -1.000000 0.000000 0.000000
vn 0.000000 1.000000 0.000000
vn 0.000000 1.000000 0.000000
vn 0.000000 1.000000 0.000000
vn 0.000000 1.000000 0.000000
vn 1.000000 0.000000 0.000000
vn 1.000000 0.000000 0.000000
vn 1.000000 0.000000 0.000000
vn 1.000000 0.000000 0.000000
vn 0.000000 -1.000000 0.000000
vn 0.000000 -1.000000 0.000000
vn 0.000000 -1.000000 0.000000
vn 0.000000 -1.000000 0.000000
vn 0.000000 0.000000 -1.000000
vn 0.000000 0.000000 -1.000000
vn 0.000000 0.000000 -1.000000
vn 0.000000 0.000000 -1.000000
vn 1.000000 0.000000 0.000000
vn 1.000000 0.000000 0.000000
vn 1.000000 0.000000 0.000000
vn 1.000000 0.000000 0.000000
vn 0.000000 0.000000 1.000000
vn 0.000000 0.000000 1.000000
vn 0.000000 0.000000 1.000000
vn 0.000000 0.000000 1.000000
vn -1.000000 0.000000 0.000000
vn -1.000000 0.000000 0.000000
vn -1.000000 0.000000 0.000000
vn -1.000000 0.000000 0.000000
vn 0.843312 -0.003162 0.537414
vn 0.845261 -0.003143 0.534345
vn 1.000000 0.000000 0.000000
vn 1.000000 0.000000 0.000000
vn 0.843297 -0.003162 0.537439
vn 0.845276 -0.003143 0.534320
vn 1.000000 0.000000 0.000000
vn 1.000000 0.000000 0.000000
vn 0.000000 1.000000 0.000000
vn 0.000000 1.000000 0.000000
vn 0.000000 1.000000 0.000000
vn 0.000000 1.000000 0.000000
vn 0.000000 1.000000 0.000000
vn 0.000000 1.000000 0.000000
vn 0.000000 -1.000000 0.000000
vn 0.000000 -1.000000 0.000000
vn 0.000000 -1.000000 0.000000
vn 0.000000 -1.000000 0.000000
vn 0.000000 -1.000000 0.000000
vn 0.000000 -1.000000 0.000000
vn 0.000000 1.000000 0.000000
vn 0.000000 1.000000 0.000000
vn 0.000000 1.000000 0.000000
vn 0.000000 1.000000 0.000000
vn 0.000000 1.000000 0.000000
vn 0.000000 1.000000 0.000000
vn 0.000000 -1.000000 0.000000
vn 0.000000 -1.000000 0.000000
vn 0.000000 -1.000000 0.000000
vn 0.000000 -1.000000 0.000000
vn 0.000000 -1.000000 0.000000
vn 0.000000 -1.000000 0.000000
s off
g CashierTable:pCube1 group9
usemtl initialShadingGroup
f 1/1/1 2/2/2 4/3/3 3/4/4
f 9/5/5 65/6/6 12/7/7
f 5/8/8 6/9/9 8/10/10 7/11/11
f 10/12/12 2/13/13 1/14/14
f 2/2/15 66/15/16 65/16/17 4/3/18
f 10/17/19 1/1/20 3/4/21 9/18/22
f 7/19/23 10/17/24 9/18/25 5/20/26
f 7/11/27 8/10/28 11/21/29 10/12/30
f 12/22/31 11/23/32 8/24/33 6/25/34
f 14/26/35 13/27/36 15/28/37 16/29/38
f 9/5/39 12/7/40 13/27/41 14/26/42
f 12/7/43 6/9/44 15/28/45 13/27/46
f 6/9/47 5/8/48 16/29/49 15/28/50
f 5/8/51 9/5/52 14/26/53 16/29/54
f 17/30/55 20/31/56 19/32/57 18/33/58
f 20/31/59 22/34/60 19/32/61
f 23/35/62 26/36/63 25/37/64 24/38/65
f 27/39/66 68/40/67 28/41/68
f 18/33/69 19/32/70 67/42/71 68/43/72
f 27/44/73 22/45/74 20/31/75 17/30/76
f 26/46/77 23/47/78 22/45/79 27/44/80
f 26/36/81 27/39/82 28/41/83 25/37/84
f 21/48/85 24/49/86 25/50/87 28/51/88
f 29/52/89 32/53/90 31/54/91 30/55/92
f 22/34/93 29/52/94 30/55/95 21/56/96
f 21/56/97 30/55/98 31/54/99 24/38/100
f 24/38/101 31/54/102 32/53/103 23/35/104
f 23/35/105 32/53/106 29/52/107 22/34/108
f 33/57/109 36/58/110 35/59/111 34/60/112
f 36/58/113 38/61/114 37/62/115 35/59/116
f 39/63/117 42/64/118 41/65/119 40/66/120
f 43/67/121 33/68/122 34/69/123 44/70/124
f 34/60/125 35/59/126 37/71/127 44/72/128
f 43/73/129 38/74/130 36/58/131 33/57/132
f 42/75/133 39/76/134 38/74/135 43/73/136
f 42/64/137 43/67/138 44/70/139 41/65/140
f 37/71/141 40/77/142 41/78/143 44/72/144
f 45/79/145 48/80/146 47/81/147 46/82/148
f 38/61/149 45/79/150 46/82/151 37/62/152
f 37/62/153 46/82/154 47/81/155 40/66/156
f 40/66/157 47/81/158 48/80/159 39/63/160
f 39/63/161 48/80/162 45/79/163 38/61/164
f 49/83/165 52/84/166 51/85/167 50/86/168
f 50/86/169 51/85/170 54/87/171 53/88/172
f 55/89/173 58/90/174 57/91/175 56/92/176
f 59/93/177 60/94/178 52/95/179 49/96/180
f 52/84/181 60/97/182 54/98/183 51/85/184
f 59/99/185 49/83/186 50/86/187 53/100/188
f 56/101/189 59/99/190 53/100/191 55/102/192
f 56/92/193 57/91/194 60/94/195 59/93/196
f 54/98/197 60/97/198 57/103/199 58/104/200
f 61/105/201 64/106/202 63/107/203 62/108/204
f 53/88/205 54/87/206 64/106/207 61/105/208
f 54/87/209 58/90/210 63/107/211 64/106/212
f 58/90/213 55/89/214 62/108/215 63/107/216
f 55/89/217 53/88/218 61/105/219 62/108/220
f 65/16/221 66/15/222 11/23/223 12/22/224
f 68/43/225 67/42/226 21/48/227 28/51/228
f 27/39/229 17/109/230 68/40/231
f 68/40/232 17/109/233 18/110/234
f 67/111/235 22/34/236 21/56/237
f 19/32/238 22/34/239 67/111/240
f 9/5/241 4/3/242 65/6/243
f 3/4/244 4/3/245 9/5/246
f 10/12/247 11/21/248 66/112/249
f 10/12/250 66/112/251 2/13/252
