# This file uses centimeters as units for non-parametric coordinates.

mtllib Ceiling.mtl
g default
v -47.123558 7.566716 64.758671
v 44.898180 7.566865 64.758370
v -47.123558 10.432170 64.758665
v 44.898180 10.432319 64.758370
v -47.123558 10.432170 -37.694024
v 44.898180 10.432319 -37.694331
v -47.123558 7.566716 -37.694024
v 44.898180 7.566865 -37.694331
vt 0.001731 0.006227
vt 0.996944 0.006227
vt 0.996944 0.993773
vt 0.001731 0.993773
vt 0.001731 0.993773
vt 0.996944 0.993773
vt 0.996944 0.006227
vt 0.001731 0.006227
vt 0.000770 0.010230
vt 0.997281 0.010247
vt 0.997281 0.994074
vt 0.000770 0.994057
vt 0.000770 0.994057
vt 0.997281 0.994074
vt 0.997281 0.010247
vt 0.000770 0.010230
vt 0.007013 0.008862
vt 0.991370 0.008862
vt 0.991370 0.993188
vt 0.007013 0.993188
vt 0.991369 0.008828
vt 0.007011 0.008828
vt 0.007011 0.993154
vt 0.991369 0.993154
vn 0.000003 0.000001 1.000000
vn 0.000003 0.000001 1.000000
vn 0.000003 0.000001 1.000000
vn 0.000003 0.000001 1.000000
vn -0.000002 1.000000 0.000000
vn -0.000002 1.000000 0.000000
vn -0.000002 1.000000 0.000000
vn -0.000002 1.000000 0.000000
vn -0.000003 0.000000 -1.000000
vn -0.000003 0.000000 -1.000000
vn -0.000003 0.000000 -1.000000
vn -0.000003 0.000000 -1.000000
vn 0.000002 -1.000000 0.000000
vn 0.000002 -1.000000 0.000000
vn 0.000002 -1.000000 0.000000
vn 0.000002 -1.000000 0.000000
vn 1.000000 0.000000 0.000000
vn 1.000000 0.000000 0.000000
vn 1.000000 0.000000 0.000000
vn 1.000000 0.000000 0.000000
vn -1.000000 0.000001 0.000000
vn -1.000000 0.000001 0.000000
vn -1.000000 0.000001 0.000000
vn -1.000000 0.000001 0.000000
s off
g pCube1
usemtl lambert2SG
f 1/9/1 2/10/2 4/11/3 3/12/4
f 3/1/5 4/2/6 6/3/7 5/4/8
f 5/13/9 6/14/10 8/15/11 7/16/12
f 7/5/13 8/6/14 2/7/15 1/8/16
f 2/17/17 8/18/18 6/19/19 4/20/20
f 7/21/21 1/22/22 3/23/23 5/24/24
