# This file uses centimeters as units for non-parametric coordinates.

mtllib Conveyortable.mtl
g default
v -1.046703 0.005086 -4.312576
v -0.594352 0.005086 -4.312576
v -1.046703 2.682474 -4.312576
v -0.594352 2.682474 -4.312576
v -1.046703 2.682474 -4.861722
v -0.594352 2.682474 -4.861722
v -1.046703 0.005086 -4.861722
v -0.594352 0.005086 -4.861722
v 0.739055 0.005086 -4.320701
v 1.191405 0.005086 -4.320701
v 0.739055 2.682474 -4.320701
v 1.191405 2.682474 -4.320701
v 0.739055 2.682474 -4.869847
v 1.191405 2.682474 -4.869847
v 0.739055 0.005086 -4.869847
v 1.191405 0.005086 -4.869847
v -1.057660 2.669750 4.892042
v 1.191817 2.669750 4.892042
v -1.057660 3.114239 4.892042
v 1.191817 3.114239 4.892042
v -1.057660 3.114239 -4.866184
v 1.191817 3.114239 -4.866184
v -1.057660 2.669750 -4.866184
v 1.191817 2.669750 -4.866184
v -1.059059 0.005086 4.887877
v -0.606709 0.005086 4.887877
v -1.059059 2.682474 4.887877
v -0.606709 2.682474 4.887877
v -1.059059 2.682474 4.338732
v -0.606709 2.682474 4.338732
v -1.059059 0.005086 4.338732
v -0.606709 0.005086 4.338732
v 0.739369 0.005086 4.886225
v 1.191719 0.005086 4.886225
v 0.739369 2.682474 4.886225
v 1.191719 2.682474 4.886225
v 0.739369 2.682474 4.337079
v 1.191719 2.682474 4.337079
v 0.739369 0.005086 4.337079
v 1.191719 0.005086 4.337079
v -1.057660 3.114239 4.196936
v -1.057660 2.669750 4.196936
v 1.191817 2.669750 4.196936
v 1.191817 3.114239 4.196936
v -1.057660 3.114239 4.892042
v 1.191817 3.114239 4.892042
v 1.191817 3.114239 4.196936
v -1.057660 3.114239 4.196936
v 1.191817 2.669750 -4.141921
v -1.057660 2.669750 -4.141921
v -1.057660 3.114239 -4.141921
v 1.191817 3.114239 -4.141921
v -1.057660 3.920067 4.892042
v 1.191817 3.920067 4.892042
v 1.191817 3.920067 4.196936
v -1.057660 3.920067 4.196936
v -1.057660 3.920067 -4.141921
v 1.191817 3.920067 -4.141921
v 1.191817 3.920067 -4.866184
v -1.057660 3.920067 -4.866184
vt 0.646465 0.101187
vt 0.686858 0.101187
vt 0.686858 0.297761
vt 0.646465 0.297761
vt 0.832284 0.101187
vt 0.872676 0.101187
vt 0.872676 0.141505
vt 0.832284 0.141505
vt 0.790241 0.101187
vt 0.830634 0.101187
vt 0.830634 0.297761
vt 0.790241 0.297761
vt 0.855909 0.142328
vt 0.896302 0.142328
vt 0.896302 0.182647
vt 0.855909 0.182647
vt 0.688557 0.101187
vt 0.737593 0.101187
vt 0.737593 0.297761
vt 0.688557 0.297761
vt 0.739399 0.101187
vt 0.788435 0.101187
vt 0.788435 0.297761
vt 0.739399 0.297761
vt 0.646465 0.101187
vt 0.686858 0.101187
vt 0.686858 0.297761
vt 0.646465 0.297761
vt 0.832284 0.101187
vt 0.872676 0.101187
vt 0.872676 0.141505
vt 0.832284 0.141505
vt 0.790241 0.101187
vt 0.830634 0.101187
vt 0.830634 0.297761
vt 0.790241 0.297761
vt 0.855909 0.142328
vt 0.896302 0.142328
vt 0.896302 0.182647
vt 0.855909 0.182647
vt 0.688557 0.101187
vt 0.737593 0.101187
vt 0.737593 0.297761
vt 0.688557 0.297761
vt 0.739399 0.101187
vt 0.788435 0.101187
vt 0.788435 0.297761
vt 0.739399 0.297761
vt 0.210533 0.982860
vt 0.210302 0.873555
vt 0.292245 0.873389
vt 0.292476 0.982694
vt 0.081256 0.859575
vt 0.083174 0.647570
vt 0.425462 0.648131
vt 0.423544 0.860135
vt 0.322801 0.957305
vt 0.322398 0.876208
vt 0.179491 0.876331
vt 0.179893 0.957428
vt 0.292732 0.981982
vt 0.292089 0.877175
vt 0.210201 0.878300
vt 0.210844 0.983107
vt 0.171568 0.527891
vt 0.325963 0.527891
vt 0.325963 0.601779
vt 0.171568 0.601779
vt 0.325963 0.527891
vt 0.171568 0.527891
vt 0.171568 0.601779
vt 0.325963 0.601779
vt 0.646465 0.101187
vt 0.686858 0.101187
vt 0.686858 0.297761
vt 0.646465 0.297761
vt 0.832284 0.101187
vt 0.872676 0.101187
vt 0.872676 0.141505
vt 0.832284 0.141505
vt 0.790241 0.101187
vt 0.830634 0.101187
vt 0.830634 0.297761
vt 0.790241 0.297761
vt 0.855909 0.142328
vt 0.896302 0.142328
vt 0.896302 0.182647
vt 0.855909 0.182647
vt 0.688557 0.101187
vt 0.737593 0.101187
vt 0.737593 0.297761
vt 0.688557 0.297761
vt 0.739399 0.101187
vt 0.788435 0.101187
vt 0.788435 0.297761
vt 0.739399 0.297761
vt 0.646465 0.101187
vt 0.686858 0.101187
vt 0.686858 0.297761
vt 0.646465 0.297761
vt 0.832284 0.101187
vt 0.872676 0.101187
vt 0.872676 0.141505
vt 0.832284 0.141505
vt 0.790241 0.101187
vt 0.830634 0.101187
vt 0.830634 0.297761
vt 0.790241 0.297761
vt 0.855909 0.142328
vt 0.896302 0.142328
vt 0.896302 0.182647
vt 0.855909 0.182647
vt 0.688557 0.101187
vt 0.737593 0.101187
vt 0.737593 0.297761
vt 0.688557 0.297761
vt 0.739399 0.101187
vt 0.788435 0.101187
vt 0.788435 0.297761
vt 0.739399 0.297761
vt 0.182566 0.601779
vt 0.105638 0.859615
vt 0.182566 0.527891
vt 0.216677 0.983027
vt 0.216034 0.878220
vt 0.182566 0.527891
vt 0.107556 0.647610
vt 0.182566 0.601779
vt 0.081256 0.859575
vt 0.083174 0.647570
vt 0.107556 0.647610
vt 0.105638 0.859615
vt 0.286011 0.877259
vt 0.314503 0.527891
vt 0.314503 0.527891
vt 0.286654 0.982065
vt 0.314503 0.601779
vt 0.398139 0.860094
vt 0.400057 0.648089
vt 0.314503 0.601779
vt 0.081256 0.859575
vt 0.083174 0.647570
vt 0.107556 0.647610
vt 0.105638 0.859615
vt 0.398139 0.860094
vt 0.400057 0.648089
vt 0.425462 0.648131
vt 0.423544 0.860135
vt 0.415444 0.673212
vt 0.415444 0.596261
vt 0.439222 0.596261
vt 0.439222 0.673212
vt 0.297118 0.595692
vt 0.297118 0.518742
vt 0.321894 0.518742
vt 0.321894 0.595692
vt 0.380286 0.595692
vt 0.380286 0.518742
vt 0.407852 0.518742
vt 0.407852 0.595692
vt 0.350571 0.518742
vt 0.350571 0.595692
vt 0.323006 0.595692
vt 0.323006 0.518742
vt 0.408927 0.595692
vt 0.408927 0.518742
vt 0.436493 0.518742
vt 0.436493 0.595692
vt 0.379212 0.518742
vt 0.379212 0.595692
vt 0.351646 0.595692
vt 0.351646 0.518742
vn 0.000000 0.000000 1.000000
vn 0.000000 0.000000 1.000000
vn 0.000000 0.000000 1.000000
vn 0.000000 0.000000 1.000000
vn 0.000000 1.000000 0.000000
vn 0.000000 1.000000 0.000000
vn 0.000000 1.000000 0.000000
vn 0.000000 1.000000 0.000000
vn 0.000000 0.000000 -1.000000
vn 0.000000 0.000000 -1.000000
vn 0.000000 0.000000 -1.000000
vn 0.000000 0.000000 -1.000000
vn 0.000000 -1.000000 0.000000
vn 0.000000 -1.000000 0.000000
vn 0.000000 -1.000000 0.000000
vn 0.000000 -1.000000 0.000000
vn 1.000000 0.000000 0.000000
vn 1.000000 0.000000 0.000000
vn 1.000000 0.000000 0.000000
vn 1.000000 0.000000 0.000000
vn -1.000000 0.000000 0.000000
vn -1.000000 0.000000 0.000000
vn -1.000000 0.000000 0.000000
vn -1.000000 0.000000 0.000000
vn 0.000000 0.000000 1.000000
vn 0.000000 0.000000 1.000000
vn 0.000000 0.000000 1.000000
vn 0.000000 0.000000 1.000000
vn 0.000000 1.000000 0.000000
vn 0.000000 1.000000 0.000000
vn 0.000000 1.000000 0.000000
vn 0.000000 1.000000 0.000000
vn 0.000000 0.000000 -1.000000
vn 0.000000 0.000000 -1.000000
vn 0.000000 0.000000 -1.000000
vn 0.000000 0.000000 -1.000000
vn 0.000000 -1.000000 0.000000
vn 0.000000 -1.000000 0.000000
vn 0.000000 -1.000000 0.000000
vn 0.000000 -1.000000 0.000000
vn 1.000000 0.000000 0.000000
vn 1.000000 0.000000 0.000000
vn 1.000000 0.000000 0.000000
vn 1.000000 0.000000 0.000000
vn -1.000000 0.000000 0.000000
vn -1.000000 0.000000 0.000000
vn -1.000000 0.000000 0.000000
vn -1.000000 0.000000 0.000000
vn 0.000000 0.000000 1.000000
vn 0.000000 0.000000 1.000000
vn 0.000000 0.000000 1.000000
vn 0.000000 0.000000 1.000000
vn 0.000000 1.000000 0.000000
vn 0.000000 1.000000 0.000000
vn 0.000000 1.000000 0.000000
vn 0.000000 1.000000 0.000000
vn 0.000000 0.000000 -1.000000
vn 0.000000 0.000000 -1.000000
vn 0.000000 0.000000 -1.000000
vn 0.000000 0.000000 -1.000000
vn 0.000000 -1.000000 0.000000
vn 0.000000 -1.000000 0.000000
vn 0.000000 -1.000000 0.000000
vn 0.000000 -1.000000 0.000000
vn 1.000000 0.000000 0.000000
vn 1.000000 0.000000 0.000000
vn 1.000000 0.000000 0.000000
vn 1.000000 0.000000 0.000000
vn -1.000000 0.000000 0.000000
vn -1.000000 0.000000 0.000000
vn -1.000000 0.000000 0.000000
vn -1.000000 0.000000 0.000000
vn 0.000000 0.000000 1.000000
vn 0.000000 0.000000 1.000000
vn 0.000000 0.000000 1.000000
vn 0.000000 0.000000 1.000000
vn 0.000000 1.000000 0.000000
vn 0.000000 1.000000 0.000000
vn 0.000000 1.000000 0.000000
vn 0.000000 1.000000 0.000000
vn 0.000000 0.000000 -1.000000
vn 0.000000 0.000000 -1.000000
vn 0.000000 0.000000 -1.000000
vn 0.000000 0.000000 -1.000000
vn 0.000000 -1.000000 0.000000
vn 0.000000 -1.000000 0.000000
vn 0.000000 -1.000000 0.000000
vn 0.000000 -1.000000 0.000000
vn 1.000000 0.000000 0.000000
vn 1.000000 0.000000 0.000000
vn 1.000000 0.000000 0.000000
vn 1.000000 0.000000 0.000000
vn -1.000000 0.000000 0.000000
vn -1.000000 0.000000 0.000000
vn -1.000000 0.000000 0.000000
vn -1.000000 0.000000 0.000000
vn 0.000000 0.000000 1.000000
vn 0.000000 0.000000 1.000000
vn 0.000000 0.000000 1.000000
vn 0.000000 0.000000 1.000000
vn 0.000000 1.000000 0.000000
vn 0.000000 1.000000 0.000000
vn 0.000000 1.000000 0.000000
vn 0.000000 1.000000 0.000000
vn 0.000000 0.000000 -1.000000
vn 0.000000 0.000000 -1.000000
vn 0.000000 0.000000 -1.000000
vn 0.000000 0.000000 -1.000000
vn 0.000000 -1.000000 0.000000
vn 0.000000 -1.000000 0.000000
vn 0.000000 -1.000000 0.000000
vn 0.000000 -1.000000 0.000000
vn 1.000000 0.000000 0.000000
vn 1.000000 0.000000 0.000000
vn 1.000000 0.000000 0.000000
vn 1.000000 0.000000 0.000000
vn -1.000000 0.000000 0.000000
vn -1.000000 0.000000 0.000000
vn -1.000000 0.000000 0.000000
vn -1.000000 0.000000 0.000000
vn -1.000000 0.000000 0.000000
vn -1.000000 0.000000 0.000000
vn -1.000000 0.000000 0.000000
vn -1.000000 0.000000 0.000000
vn 0.000000 -1.000000 0.000000
vn 0.000000 -1.000000 0.000000
vn 0.000000 -1.000000 0.000000
vn 0.000000 -1.000000 0.000000
vn 1.000000 0.000000 0.000000
vn 1.000000 0.000000 0.000000
vn 1.000000 0.000000 0.000000
vn 1.000000 0.000000 0.000000
vn 0.000000 1.000000 0.000000
vn 0.000000 1.000000 0.000000
vn 0.000000 1.000000 0.000000
vn 0.000000 1.000000 0.000000
vn 0.000000 0.000000 0.000000
vn 0.000000 0.000000 0.000000
vn 0.000000 0.000000 0.000000
vn 0.000000 0.000000 0.000000
vn 0.000000 0.000000 0.000000
vn 0.000000 0.000000 0.000000
vn 0.000000 0.000000 0.000000
vn 0.000000 0.000000 0.000000
vn 0.000000 0.000000 0.000000
vn 0.000000 0.000000 0.000000
vn 0.000000 0.000000 0.000000
vn 0.000000 0.000000 0.000000
vn 0.000000 0.000000 0.000000
vn 0.000000 0.000000 0.000000
vn 0.000000 0.000000 0.000000
vn 0.000000 0.000000 0.000000
vn 0.000000 1.000000 0.000000
vn 0.000000 1.000000 0.000000
vn 0.000000 1.000000 0.000000
vn 0.000000 1.000000 0.000000
vn 0.000000 0.000000 1.000000
vn 0.000000 0.000000 1.000000
vn 0.000000 0.000000 1.000000
vn 0.000000 0.000000 1.000000
vn 1.000000 0.000000 0.000000
vn 1.000000 0.000000 0.000000
vn 1.000000 0.000000 0.000000
vn 1.000000 0.000000 0.000000
vn 0.000000 0.000000 -1.000000
vn 0.000000 0.000000 -1.000000
vn 0.000000 0.000000 -1.000000
vn 0.000000 0.000000 -1.000000
vn -1.000000 0.000000 0.000000
vn -1.000000 0.000000 0.000000
vn -1.000000 0.000000 0.000000
vn -1.000000 0.000000 0.000000
vn 0.000000 0.000000 1.000000
vn 0.000000 0.000000 1.000000
vn 0.000000 0.000000 1.000000
vn 0.000000 0.000000 1.000000
vn 1.000000 0.000000 0.000000
vn 1.000000 0.000000 0.000000
vn 1.000000 0.000000 0.000000
vn 1.000000 0.000000 0.000000
vn 0.000000 0.000000 -1.000000
vn 0.000000 0.000000 -1.000000
vn 0.000000 0.000000 -1.000000
vn 0.000000 0.000000 -1.000000
vn -1.000000 0.000000 0.000000
vn -1.000000 0.000000 0.000000
vn -1.000000 0.000000 0.000000
vn -1.000000 0.000000 0.000000
s off
g polySurface1
usemtl lambert2SG
f 1/1/1 2/2/2 4/3/3 3/4/4
f 3/5/5 4/6/6 6/7/7 5/8/8
f 5/9/9 6/10/10 8/11/11 7/12/12
f 7/13/13 8/14/14 2/15/15 1/16/16
f 2/17/17 8/18/18 6/19/19 4/20/20
f 7/21/21 1/22/22 3/23/23 5/24/24
f 9/25/25 10/26/26 12/27/27 11/28/28
f 11/29/29 12/30/30 14/31/31 13/32/32
f 13/33/33 14/34/34 16/35/35 15/36/36
f 15/37/37 16/38/38 10/39/39 9/40/40
f 10/41/41 16/42/42 14/43/43 12/44/44
f 15/45/45 9/46/46 11/47/47 13/48/48
f 17/49/49 18/50/50 20/51/51 19/52/52
f 53/149/53 54/150/54 55/151/55 56/152/56
f 21/57/57 22/58/58 24/59/59 23/60/60
s 1
f 42/124/61 43/125/62 18/63/63 17/64/64
s 2
f 18/65/65 43/126/66 44/128/67 20/68/68
s 3
f 42/123/69 17/70/70 19/71/71 41/121/72
s off
f 25/73/73 26/74/74 28/75/75 27/76/76
f 27/77/77 28/78/78 30/79/79 29/80/80
f 29/81/81 30/82/82 32/83/83 31/84/84
f 31/85/85 32/86/86 26/87/87 25/88/88
f 26/89/89 32/90/90 30/91/91 28/92/92
f 31/93/93 25/94/94 27/95/95 29/96/96
f 33/97/97 34/98/98 36/99/99 35/100/100
f 35/101/101 36/102/102 38/103/103 37/104/104
f 37/105/105 38/106/106 40/107/107 39/108/108
f 39/109/109 40/110/110 34/111/111 33/112/112
f 34/113/113 40/114/114 38/115/115 36/116/116
f 39/117/117 33/118/118 35/119/119 37/120/120
s 3
f 23/69/121 50/135/122 51/137/123 21/72/124
s 1
f 23/61/125 24/62/126 49/133/127 50/136/128
s 2
f 52/140/129 49/134/130 24/66/131 22/67/132
s off
f 57/153/133 58/154/134 59/155/135 60/156/136
f 19/53/137 20/54/138 46/130/139 45/129/140
f 20/54/141 44/127/142 47/131/143 46/130/144
f 44/127/145 41/122/146 48/132/147 47/131/148
f 41/122/149 19/53/150 45/129/151 48/132/152
s 1
f 50/136/128 49/133/127 43/125/62 42/124/61
s 3
f 51/137/123 50/135/122 42/123/69 41/121/72
s off
f 41/122/153 44/127/154 52/139/155 51/138/156
s 2
f 44/128/67 43/126/66 49/134/130 52/140/129
s off
f 45/157/157 46/158/158 54/159/159 53/160/160
f 46/130/161 47/131/162 55/143/163 54/142/164
f 47/161/165 48/162/166 56/163/167 55/164/168
f 48/132/169 45/129/170 53/141/171 56/144/172
f 51/165/173 52/166/174 58/167/175 57/168/176
f 52/139/177 22/55/178 59/147/179 58/146/180
f 22/169/181 21/170/182 60/171/183 59/172/184
f 21/56/185 51/138/186 57/145/187 60/148/188
