# This file uses centimeters as units for non-parametric coordinates.

mtllib Dustbin.mtl
g default
v 1.181339 -0.002350 -0.481237
v 0.865277 -0.002350 -0.902517
v 0.399601 -0.002350 -1.162883
v -0.135169 -0.002350 -1.217315
v -0.646568 -0.002350 -1.056400
v -1.046169 -0.002350 -0.707963
v -1.264879 -0.002350 -0.232251
v -1.264879 -0.002350 0.288480
v -1.046170 -0.002350 0.764192
v -0.646569 -0.002350 1.112629
v -0.135170 -0.002350 1.273544
v 0.399601 -0.002350 1.219113
v 0.865277 -0.002350 0.958747
v 1.181339 -0.002350 0.537467
v 1.293137 -0.002350 0.028115
v 1.181339 3.803470 -0.481237
v 0.865277 3.803470 -0.902517
v 0.399601 3.803470 -1.162883
v -0.135169 3.803470 -1.217315
v -0.646568 3.803470 -1.056400
v -1.046169 3.803470 -0.707963
v -1.264879 3.803470 -0.232251
v -1.264879 3.803470 0.288480
v -1.046170 3.803470 0.764192
v -0.646569 3.803470 1.112629
v -0.135170 3.803470 1.273544
v 0.399601 3.803470 1.219113
v 0.865277 3.803470 0.958747
v 1.181339 3.803470 0.537467
v 1.293137 3.803470 0.028115
v -0.000000 -0.002350 0.028115
v 0.399601 3.308615 1.219113
v -0.135170 3.308615 1.273544
v -0.646569 3.308615 1.112629
v -1.046170 3.308615 0.764192
v -1.264879 3.308615 0.288480
v -1.264879 3.308615 -0.232251
v -1.046169 3.308615 -0.707963
v -0.646568 3.308615 -1.056400
v -0.135169 3.308615 -1.217315
v 0.399601 3.308615 -1.162883
v 0.865277 3.308615 -0.902517
v 0.865277 3.308615 0.958747
v 1.179813 2.621279 0.544255
v 0.865277 2.641428 0.958747
v 0.399601 2.641428 1.219113
v -0.135170 2.641428 1.273544
v -0.646569 2.641428 1.112629
v -1.046170 2.641428 0.764192
v -1.264879 2.641428 0.288480
v -1.264879 2.641428 -0.232251
v -1.046169 2.641428 -0.707963
v -0.646568 2.641428 -1.056400
v -0.135169 2.646202 -1.217315
v 0.399601 2.641428 -1.162883
v 0.865277 2.641428 -0.902517
v 1.196949 2.610641 -0.518467
v 1.293137 2.641428 0.028115
v 0.862060 3.911593 -0.341909
v 0.632454 3.911593 -0.647952
v 0.294159 3.911593 -0.837097
v -0.094330 3.911593 -0.876639
v -0.465841 3.911593 -0.759741
v -0.756135 3.911593 -0.506616
v -0.915018 3.911593 -0.161031
v -0.915018 3.911593 0.217260
v -0.756135 3.911593 0.562845
v -0.465841 3.911593 0.815971
v -0.094330 3.911593 0.932869
v 0.294159 3.911593 0.893327
v 0.632454 3.911593 0.704182
v 0.862060 3.911593 0.398139
v 0.943277 3.911593 0.028115
v 0.862060 3.771344 -0.341909
v 0.632454 3.771344 -0.647952
v 0.006829 3.809441 0.028115
v 0.294159 3.771344 -0.837097
v -0.094330 3.771344 -0.876639
v -0.465841 3.771344 -0.759741
v -0.756135 3.771344 -0.506616
v -0.915018 3.771344 -0.161031
v -0.915018 3.771344 0.217260
v -0.756135 3.771344 0.562845
v -0.465841 3.771344 0.815971
v -0.094330 3.771344 0.932869
v 0.294159 3.771344 0.893327
v 0.632454 3.771344 0.704182
v 0.862060 3.771344 0.398139
v 0.943277 3.771344 0.028115
v 0.865277 3.295855 0.958747
v 1.180576 3.290879 0.566141
v 1.293137 3.324198 0.028115
v 1.180576 3.287293 0.566141
v 1.293137 3.324198 0.028115
v 1.189144 3.299430 -0.514958
v 1.189144 3.299430 -0.514958
v 0.865277 3.295782 -0.902517
vt 0.554144 0.746476
vt 0.541809 0.746476
vt 0.541809 0.685494
vt 0.554144 0.685494
vt 0.530013 0.746476
vt 0.530013 0.685494
vt 0.520796 0.746476
vt 0.520796 0.685494
vt 0.573686 0.658690
vt 0.584658 0.658690
vt 0.584658 0.719672
vt 0.573686 0.719672
vt 0.596670 0.658690
vt 0.596670 0.719672
vt 0.523726 0.658690
vt 0.523726 0.719672
vt 0.531763 0.658690
vt 0.531763 0.719672
vt 0.601021 0.658690
vt 0.544781 0.658690
vt 0.544781 0.719672
vt 0.532985 0.719672
vt 0.901663 0.066479
vt 0.907983 0.055176
vt 0.930571 0.076178
vt 0.900342 0.079459
vt 0.904248 0.091872
vt 0.912705 0.101571
vt 0.924252 0.106880
vt 0.936891 0.106880
vt 0.948438 0.101571
vt 0.956895 0.091872
vt 0.960801 0.079459
vt 0.959480 0.066479
vt 0.953160 0.055176
vt 0.942934 0.047504
vt 0.768309 0.217905
vt 0.792347 0.235940
vt 0.739245 0.285080
vt 0.807204 0.262511
vt 0.810309 0.293025
vt 0.801128 0.322206
vt 0.781246 0.345007
vt 0.754101 0.357487
vt 0.724388 0.357487
vt 0.697244 0.345007
vt 0.677362 0.322206
vt 0.668180 0.293026
vt 0.671286 0.262511
vt 0.686143 0.235940
vt 0.710181 0.217905
vt 0.739245 0.211526
vt 0.532985 0.735062
vt 0.544781 0.735062
vt 0.544781 0.746476
vt 0.532985 0.746476
vt 0.523726 0.735062
vt 0.531763 0.735062
vt 0.531763 0.746476
vt 0.523726 0.746476
vt 0.596670 0.735062
vt 0.596670 0.746476
vt 0.584658 0.735062
vt 0.584658 0.746476
vt 0.530013 0.670105
vt 0.520796 0.670105
vt 0.520796 0.658690
vt 0.530013 0.658690
vt 0.541809 0.670105
vt 0.541809 0.658690
vt 0.554144 0.670105
vt 0.554144 0.658690
vt 0.573686 0.735062
vt 0.918208 0.047504
vt 0.930571 0.044791
vt 0.589272 0.719672
vt 0.576200 0.719207
vt 0.577523 0.658690
vt 0.589272 0.658690
vt 0.440874 0.267828
vt 0.363265 0.232071
vt 0.348182 0.245866
vt 0.214846 0.147463
vt 0.378691 0.259662
vt 0.359389 0.265909
vt 0.381916 0.291346
vt 0.361732 0.288927
vt 0.372382 0.321646
vt 0.354806 0.310938
vt 0.351738 0.345322
vt 0.339808 0.328138
vt 0.323553 0.358280
vt 0.319333 0.337551
vt 0.292700 0.358280
vt 0.296920 0.337551
vt 0.264515 0.345322
vt 0.276444 0.328138
vt 0.243871 0.321646
vt 0.261447 0.310938
vt 0.234337 0.291346
vt 0.254521 0.288927
vt 0.237562 0.259662
vt 0.256864 0.265909
vt 0.252988 0.232071
vt 0.268070 0.245866
vt 0.260713 0.199289
vt 0.286203 0.232262
vt 0.436698 0.270480
vt 0.192923 0.145747
vt 0.415239 0.193478
vt 0.415239 0.208744
vt 0.405915 0.208744
vt 0.405915 0.193478
vt 0.415239 0.231235
vt 0.405915 0.231235
vt 0.415239 0.257064
vt 0.405915 0.257064
vt 0.415239 0.281764
vt 0.405915 0.281764
vt 0.415239 0.301064
vt 0.405915 0.301064
vt 0.395447 0.283726
vt 0.395447 0.306702
vt 0.386122 0.306702
vt 0.386122 0.283726
vt 0.395447 0.331853
vt 0.386122 0.331853
vt 0.395447 0.354829
vt 0.386122 0.354829
vt 0.395447 0.371658
vt 0.386122 0.371658
vt 0.393574 0.281764
vt 0.393574 0.257064
vt 0.402898 0.257064
vt 0.402898 0.281764
vt 0.393574 0.231235
vt 0.402898 0.231235
vt 0.393574 0.208744
vt 0.402898 0.208744
vt 0.393574 0.193478
vt 0.402898 0.193478
vt 0.438661 0.318989
vt 0.438661 0.343590
vt 0.429336 0.343590
vt 0.429336 0.318989
vt 0.438661 0.368191
vt 0.429336 0.368191
vt 0.557116 0.719672
vt 0.557116 0.658690
vt 0.567857 0.719672
vt 0.567857 0.658690
vt 0.575112 0.719207
vt 0.575147 0.658690
vt 0.557116 0.746476
vt 0.557116 0.735062
vt 0.567857 0.746476
vt 0.567857 0.735062
vt 0.572536 0.686204
vt 0.572176 0.746476
vt 0.564886 0.746476
vt 0.564886 0.685494
vt 0.564886 0.658690
vt 0.564886 0.670105
vt 0.602577 0.718962
vt 0.415462 0.821060
vt 0.413654 0.737499
vt 0.447585 0.738923
vt 0.447585 0.821060
vt 0.438594 0.652555
vt 0.436467 0.736868
vt 0.404344 0.736868
vt 0.404344 0.654731
vt 0.472778 0.737499
vt 0.474586 0.821060
vt 0.448018 0.821060
vt 0.448018 0.738923
vt 0.439132 0.734692
vt 0.439132 0.652555
vt 0.459065 0.652555
vt 0.459557 0.736868
vt 0.895658 0.107724
vt 0.894624 0.086394
vt 0.915073 0.087122
vt 0.915073 0.108087
vt 0.909241 0.064153
vt 0.908024 0.085674
vt 0.888428 0.086230
vt 0.888428 0.065264
vt 0.928458 0.086394
vt 0.929492 0.107724
vt 0.915325 0.108087
vt 0.915325 0.087122
vt 0.909569 0.085119
vt 0.909569 0.064153
vt 0.921255 0.064709
vt 0.921537 0.086230
vt 0.430710 0.628723
vt 0.466747 0.628723
vt 0.466747 0.815024
vt 0.430710 0.815024
vn 0.101261 0.000000 -0.994860
vn 0.101261 0.000000 -0.994860
vn 0.101261 0.000000 -0.994860
vn 0.101261 0.000000 -0.994860
vn -0.300149 0.000000 -0.953892
vn -0.300149 0.000000 -0.953892
vn -0.300149 0.000000 -0.953892
vn -0.300149 0.000000 -0.953893
vn -0.657207 0.000000 -0.753710
vn -0.657207 0.000000 -0.753710
vn -0.657207 0.000000 -0.753710
vn -0.657207 0.000000 -0.753710
vn -0.908576 0.000000 -0.417720
vn -0.908576 0.000000 -0.417720
vn -0.908576 0.000000 -0.417720
vn -0.908576 0.000000 -0.417720
vn -1.000000 0.000000 0.000000
vn -1.000000 0.000000 0.000000
vn -1.000000 0.000000 0.000000
vn -1.000000 0.000000 0.000000
vn -0.908576 0.000000 0.417719
vn -0.908576 0.000000 0.417719
vn -0.908576 0.000000 0.417719
vn -0.908576 0.000000 0.417719
vn -0.657207 0.000000 0.753710
vn -0.657207 0.000000 0.753710
vn -0.657207 0.000000 0.753710
vn -0.657207 0.000000 0.753710
vn -0.300148 0.000000 0.953893
vn -0.300148 0.000000 0.953893
vn -0.300148 0.000000 0.953893
vn -0.300148 0.000000 0.953893
vn 0.000000 -1.000000 0.000000
vn 0.000000 -1.000000 0.000000
vn 0.000000 -1.000000 0.000000
vn 0.000000 -1.000000 0.000000
vn 0.000000 -1.000000 0.000000
vn 0.000000 -1.000000 0.000000
vn 0.000000 -1.000000 0.000000
vn 0.000000 -1.000000 0.000000
vn 0.000000 -1.000000 0.000000
vn 0.000000 -1.000000 0.000000
vn 0.000000 -1.000000 0.000000
vn 0.000000 -1.000000 0.000000
vn 0.000000 -1.000000 0.000000
vn 0.000000 -1.000000 0.000000
vn 0.000000 -1.000000 0.000000
vn 0.000000 -1.000000 0.000000
vn 0.000000 -1.000000 0.000000
vn 0.000000 -1.000000 0.000000
vn 0.000000 -1.000000 0.000000
vn 0.000000 -1.000000 0.000000
vn 0.000000 -1.000000 0.000000
vn 0.000000 -1.000000 0.000000
vn 0.000000 -1.000000 0.000000
vn 0.000000 -1.000000 0.000000
vn 0.000000 -1.000000 0.000000
vn 0.000000 -1.000000 0.000000
vn 0.000000 -1.000000 0.000000
vn 0.000000 -1.000000 0.000000
vn 0.000000 -1.000000 0.000000
vn 0.000000 -1.000000 0.000000
vn 0.000000 -1.000000 -0.000000
vn 0.000000 -1.000000 -0.000000
vn 0.000000 -1.000000 -0.000000
vn 0.000000 -1.000000 0.000000
vn 0.000000 -1.000000 0.000000
vn 0.000000 -1.000000 0.000000
vn 0.033600 0.999117 -0.025209
vn 0.033600 0.999117 -0.025209
vn 0.033600 0.999117 -0.025209
vn 0.020744 0.999096 -0.037101
vn 0.020744 0.999096 -0.037101
vn 0.020744 0.999096 -0.037101
vn 0.004331 0.999085 -0.042553
vn 0.004331 0.999085 -0.042553
vn 0.004331 0.999085 -0.042553
vn -0.012787 0.999092 -0.040639
vn -0.012787 0.999092 -0.040639
vn -0.012787 0.999092 -0.040639
vn -0.027658 0.999114 -0.031719
vn -0.027658 0.999114 -0.031719
vn -0.027658 0.999114 -0.031719
vn -0.037731 0.999137 -0.017346
vn -0.037731 0.999137 -0.017346
vn -0.037731 0.999137 -0.017346
vn -0.041291 0.999147 0.000000
vn -0.041291 0.999147 0.000000
vn -0.041291 0.999147 0.000000
vn -0.037731 0.999137 0.017346
vn -0.037731 0.999137 0.017346
vn -0.037731 0.999137 0.017346
vn -0.027658 0.999114 0.031719
vn -0.027658 0.999114 0.031719
vn -0.027658 0.999114 0.031719
vn -0.012787 0.999092 0.040639
vn -0.012787 0.999092 0.040639
vn -0.012787 0.999092 0.040639
vn 0.004331 0.999085 0.042553
vn 0.004331 0.999085 0.042553
vn 0.004331 0.999085 0.042553
vn 0.020744 0.999096 0.037101
vn 0.020744 0.999096 0.037101
vn 0.020744 0.999096 0.037101
vn 0.033600 0.999117 0.025209
vn 0.033600 0.999117 0.025209
vn 0.033600 0.999117 0.025209
vn 0.040647 0.999134 0.008922
vn 0.040647 0.999134 0.008922
vn 0.040647 0.999134 0.008922
vn 0.040647 0.999134 -0.008922
vn 0.040647 0.999134 -0.008922
vn 0.040647 0.999134 -0.008922
vn -0.300148 0.000000 0.953893
vn -0.300148 0.000000 0.953893
vn -0.300148 0.000000 0.953893
vn -0.300148 0.000000 0.953893
vn -0.657208 0.000000 0.753710
vn -0.657208 0.000000 0.753710
vn -0.657208 0.000000 0.753710
vn -0.657208 0.000000 0.753710
vn -0.908576 0.000000 0.417719
vn -0.908576 0.000000 0.417719
vn -0.908576 0.000000 0.417719
vn -0.908576 0.000000 0.417719
vn -0.976749 0.000000 -0.214387
vn -1.000000 0.000000 0.000000
vn -1.000000 0.000000 0.000000
vn -0.976749 0.000000 -0.214387
vn -0.657207 0.000000 -0.753710
vn -0.799907 0.000000 -0.600124
vn -0.799907 0.000000 -0.600124
vn -0.657207 0.000000 -0.753710
vn -0.300148 0.000000 -0.953893
vn -0.300148 0.000000 -0.953893
vn -0.300148 0.000000 -0.953893
vn -0.300148 0.000000 -0.953893
vn 0.101261 0.000000 -0.994860
vn 0.101261 0.000000 -0.994860
vn 0.101261 0.000000 -0.994860
vn 0.101261 0.000000 -0.994860
vn -0.300148 0.000000 0.953893
vn -0.300148 0.000000 0.953893
vn -0.300148 0.000000 0.953893
vn -0.300148 0.000000 0.953893
vn -0.657207 0.000000 0.753710
vn -0.657207 0.000000 0.753710
vn -0.657207 0.000000 0.753710
vn -0.657207 0.000000 0.753710
vn -0.908576 0.000000 0.417719
vn -0.908576 0.000000 0.417719
vn -0.908576 0.000000 0.417719
vn -0.908576 0.000000 0.417719
vn -1.000000 0.000000 0.000000
vn -1.000000 0.000000 0.000000
vn -1.000000 0.000000 0.000000
vn -1.000000 0.000000 0.000000
vn -0.908576 0.000000 -0.417720
vn -0.908576 0.000000 -0.417720
vn -0.908576 0.000000 -0.417720
vn -0.908576 0.000000 -0.417720
vn -0.657207 0.000000 -0.753710
vn -0.657207 0.000000 -0.753710
vn -0.657207 0.000000 -0.753710
vn -0.657207 0.000000 -0.753710
vn -0.300149 0.000000 -0.953893
vn -0.300149 0.000000 -0.953892
vn -0.300149 0.000000 -0.953893
vn -0.300149 0.000000 -0.953893
vn 0.101261 0.000000 -0.994860
vn 0.101261 0.000000 -0.994860
vn 0.101261 0.000000 -0.994860
vn 0.101261 0.000000 -0.994860
vn 0.000000 -1.000000 -0.000000
vn 0.000000 -1.000000 -0.000000
vn 0.000000 -1.000000 -0.000000
vn 0.000000 -1.000000 0.000000
vn 0.000000 -1.000000 0.000000
vn 0.000000 -1.000000 0.000000
vn 0.000000 -1.000000 0.000000
vn 0.000000 -1.000000 0.000000
vn 0.000000 -1.000000 0.000000
vn 0.976983 -0.000850 0.213315
vn 0.976969 -0.000801 0.213378
vn 0.976742 0.000007 0.214419
vn 0.976742 0.000007 0.214419
vn 0.243060 0.952717 -0.182353
vn 0.243060 0.952717 -0.182353
vn 0.243060 0.952717 -0.182353
vn 0.243060 0.952717 -0.182353
vn 0.149566 0.951878 -0.267505
vn 0.149566 0.951878 -0.267505
vn 0.149566 0.951878 -0.267505
vn 0.149566 0.951878 -0.267505
vn 0.031121 0.951603 -0.305749
vn 0.031121 0.951603 -0.305749
vn 0.031121 0.951603 -0.305750
vn 0.031121 0.951603 -0.305749
vn -0.091640 0.952251 -0.291239
vn -0.091640 0.952251 -0.291239
vn -0.091640 0.952251 -0.291239
vn -0.091640 0.952251 -0.291239
vn -0.197916 0.953578 -0.226978
vn -0.197916 0.953578 -0.226978
vn -0.197916 0.953578 -0.226978
vn -0.197916 0.953578 -0.226978
vn -0.269846 0.954878 -0.124063
vn -0.269846 0.954878 -0.124063
vn -0.269846 0.954878 -0.124063
vn -0.269846 0.954878 -0.124063
vn -0.295268 0.955415 0.000000
vn -0.295268 0.955415 0.000000
vn -0.295268 0.955415 0.000000
vn -0.295268 0.955415 0.000000
vn -0.269847 0.954878 0.124062
vn -0.269847 0.954878 0.124062
vn -0.269847 0.954878 0.124062
vn -0.269847 0.954878 0.124062
vn -0.197916 0.953578 0.226977
vn -0.197916 0.953578 0.226977
vn -0.197916 0.953578 0.226977
vn -0.197916 0.953578 0.226977
vn -0.091640 0.952251 0.291239
vn -0.091640 0.952251 0.291239
vn -0.091640 0.952251 0.291239
vn -0.091640 0.952251 0.291239
vn 0.031120 0.951604 0.305748
vn 0.031120 0.951604 0.305748
vn 0.031120 0.951604 0.305748
vn 0.031120 0.951604 0.305748
vn 0.149566 0.951878 0.267505
vn 0.149566 0.951878 0.267505
vn 0.149566 0.951878 0.267505
vn 0.149566 0.951878 0.267505
vn 0.243059 0.952717 0.182353
vn 0.243059 0.952717 0.182353
vn 0.243059 0.952717 0.182353
vn 0.243059 0.952717 0.182353
vn 0.294650 0.953415 0.064673
vn 0.294650 0.953415 0.064673
vn 0.294650 0.953414 0.064673
vn 0.294650 0.953415 0.064673
vn 0.294650 0.953414 -0.064673
vn 0.294650 0.953414 -0.064673
vn 0.294650 0.953414 -0.064673
vn 0.294650 0.953414 -0.064673
vn -0.799907 0.000000 0.600124
vn -0.799907 0.000000 0.600124
vn -0.799907 0.000000 0.600124
vn -0.799907 0.000000 0.600124
vn -0.488015 0.000000 0.872836
vn -0.488015 0.000000 0.872836
vn -0.488015 0.000000 0.872836
vn -0.488015 0.000000 0.872836
vn -0.101261 0.000000 0.994860
vn -0.101261 0.000000 0.994860
vn -0.101261 0.000000 0.994860
vn -0.101261 0.000000 0.994860
vn 0.300148 0.000000 0.953893
vn 0.300148 0.000000 0.953893
vn 0.300148 0.000000 0.953893
vn 0.300148 0.000000 0.953893
vn 0.657206 0.000000 0.753711
vn 0.657206 0.000000 0.753711
vn 0.657206 0.000000 0.753711
vn 0.657206 0.000000 0.753711
vn 0.908576 0.000000 0.417719
vn 0.908576 0.000000 0.417719
vn 0.908576 0.000000 0.417719
vn 0.908576 0.000000 0.417719
vn 1.000000 0.000000 0.000000
vn 1.000000 0.000000 0.000000
vn 1.000000 0.000000 0.000000
vn 1.000000 0.000000 0.000000
vn 0.908577 0.000000 -0.417718
vn 0.908577 0.000000 -0.417718
vn 0.908577 0.000000 -0.417718
vn 0.908577 0.000000 -0.417718
vn 0.657206 0.000000 -0.753711
vn 0.657206 0.000000 -0.753711
vn 0.657206 0.000000 -0.753711
vn 0.657206 0.000000 -0.753711
vn 0.300148 0.000000 -0.953893
vn 0.300148 0.000000 -0.953893
vn 0.300148 0.000000 -0.953893
vn 0.300148 0.000000 -0.953893
vn -0.101260 0.000000 -0.994860
vn -0.101260 0.000000 -0.994860
vn -0.101260 0.000000 -0.994860
vn -0.101260 0.000000 -0.994860
vn -0.488015 0.000000 -0.872836
vn -0.488015 0.000000 -0.872836
vn -0.488015 0.000000 -0.872836
vn -0.488015 0.000000 -0.872836
vn -0.799907 0.000000 -0.600124
vn -0.799907 0.000000 -0.600124
vn -0.799907 0.000000 -0.600124
vn -0.799907 0.000000 -0.600124
vn -0.976749 0.000000 -0.214387
vn -0.976749 0.000000 -0.214387
vn -0.976749 0.000000 -0.214387
vn -0.976749 0.000000 -0.214387
vn -0.976749 0.000000 0.214387
vn -0.976749 0.000000 0.214387
vn -0.976749 0.000000 0.214387
vn -0.976749 0.000000 0.214387
vn 0.101261 0.000000 0.994860
vn 0.101261 0.000000 0.994860
vn 0.101261 0.000000 0.994860
vn 0.101261 0.000000 0.994860
vn 0.488014 0.000000 0.872836
vn 0.488014 0.000000 0.872836
vn 0.488014 0.000000 0.872836
vn 0.488014 0.000000 0.872836
vn 0.796398 -0.002428 0.604769
vn 0.796213 -0.002614 0.605011
vn 0.798262 -0.000545 0.602309
vn 0.798263 -0.000545 0.602309
vn 0.101261 0.000000 0.994860
vn 0.101261 0.000000 0.994860
vn 0.101261 0.000000 0.994860
vn 0.101261 0.000000 0.994860
vn 0.488014 0.000000 0.872836
vn 0.488014 0.000000 0.872836
vn 0.488014 0.000000 0.872836
vn 0.488014 0.000000 0.872836
vn 0.101261 0.000000 0.994860
vn 0.101261 0.000000 0.994860
vn 0.101261 0.000000 0.994860
vn 0.101261 0.000000 0.994860
vn 0.488014 0.000000 0.872836
vn 0.488014 0.000000 0.872836
vn 0.488014 0.000000 0.872836
vn 0.488014 0.000000 0.872836
vn 0.775975 -0.004345 -0.630748
vn 0.779085 -0.006753 -0.626882
vn 0.779085 -0.006753 -0.626882
vn 0.775546 -0.004013 -0.631278
vn 0.488014 0.000000 -0.872836
vn 0.488014 0.000000 -0.872836
vn 0.488014 0.000000 -0.872836
vn 0.488014 0.000000 -0.872836
vn 0.488014 0.000000 -0.872836
vn 0.488014 0.000000 -0.872836
vn 0.488014 0.000000 -0.872836
vn 0.488014 0.000000 -0.872836
vn 0.981647 -0.002202 -0.190694
vn 0.981701 -0.001968 -0.190419
vn 0.981163 -0.004281 -0.193133
vn 0.981163 -0.004281 -0.193133
vn 0.488014 0.000000 -0.872836
vn 0.488014 0.000000 -0.872836
vn 0.488014 0.000000 -0.872836
vn 0.488014 0.000000 -0.872836
vn 0.789067 0.001281 0.614306
vn 0.790073 0.016632 0.612787
vn 0.790073 0.016632 0.612787
vn 0.789073 0.001365 0.614298
vn 0.977821 -0.000275 0.209443
vn 0.977818 0.000148 0.209458
vn 0.977766 0.005289 0.209632
vn 0.977766 0.005289 0.209632
vn 0.981974 0.009384 -0.188783
vn 0.979446 0.014673 -0.201173
vn 0.979446 0.014673 -0.201173
vn 0.981823 0.009711 -0.189551
vn 0.771722 0.015023 -0.635782
vn 0.783897 0.026723 -0.620315
vn 0.783897 0.026723 -0.620315
vn 0.771948 0.015237 -0.635503
s off
g polySurface1 Dustbin2:pCylinder1
usemtl lambert2SG
f 3/1/1 4/2/2 54/3/3 55/4/4
f 4/2/5 5/5/6 53/6/7 54/3/8
f 5/5/9 6/7/10 52/8/11 53/6/12
f 6/9/13 7/10/14 51/11/15 52/12/16
f 7/10/17 8/13/18 50/14/19 51/11/20
f 8/13/21 9/15/22 49/16/23 50/14/24
f 9/15/25 10/17/26 48/18/27 49/16/28
f 10/197/29 11/198/30 47/199/31 48/200/32
f 3/23/33 2/24/34 31/25/35
f 4/26/36 3/23/37 31/25/38
f 5/27/39 4/26/40 31/25/41
f 6/28/42 5/27/43 31/25/44
f 7/29/45 6/28/46 31/25/47
f 8/30/48 7/29/49 31/25/50
f 9/31/51 8/30/52 31/25/53
f 10/32/54 9/31/55 31/25/56
f 11/33/57 10/32/58 31/25/59
f 12/34/60 11/33/61 31/25/62
f 13/35/63 12/34/64 31/25/65
f 14/36/66 13/35/67 31/25/68
f 74/37/69 75/38/70 76/39/71
f 75/38/72 77/40/73 76/39/74
f 77/40/75 78/41/76 76/39/77
f 78/41/78 79/42/79 76/39/80
f 79/42/81 80/43/82 76/39/83
f 80/43/84 81/44/85 76/39/86
f 81/44/87 82/45/88 76/39/89
f 82/45/90 83/46/91 76/39/92
f 83/46/93 84/47/94 76/39/95
f 84/47/96 85/48/97 76/39/98
f 85/48/99 86/49/100 76/39/101
f 86/49/102 87/50/103 76/39/104
f 87/50/105 88/51/106 76/39/107
f 88/51/108 89/52/109 76/39/110
f 89/52/111 74/37/112 76/39/113
f 34/53/114 33/54/115 26/55/116 25/56/117
f 35/57/118 34/58/119 25/59/120 24/60/121
f 36/61/122 35/57/123 24/60/124 23/62/125
s 1
f 37/63/126 36/61/127 23/62/128 22/64/129
f 39/65/130 38/66/131 21/67/132 20/68/133
s off
f 40/69/134 39/65/135 20/68/136 19/70/137
f 41/71/138 40/69/139 19/70/140 18/72/141
f 48/22/142 47/21/143 33/54/144 34/53/145
f 49/16/146 48/18/147 34/58/148 35/57/149
f 50/14/150 49/16/151 35/57/152 36/61/153
f 51/11/154 50/14/155 36/61/156 37/63/157
f 52/12/158 51/11/159 37/63/160 38/73/161
f 53/6/162 52/8/163 38/66/164 39/65/165
f 54/3/166 53/6/167 39/65/168 40/69/169
f 55/4/170 54/3/171 40/69/172 41/71/173
f 2/24/174 1/74/175 31/25/176
f 15/75/177 14/36/178 31/25/179
f 1/74/180 15/75/181 31/25/182
s 2
f 58/76/183 44/77/184 14/78/185 15/79/186
s off
f 16/80/187 17/81/188 60/82/189 59/83/190
f 17/81/191 18/84/192 61/85/193 60/82/194
f 18/84/195 19/86/196 62/87/197 61/85/198
f 19/86/199 20/88/200 63/89/201 62/87/202
f 20/88/203 21/90/204 64/91/205 63/89/206
f 21/90/207 22/92/208 65/93/209 64/91/210
f 22/92/211 23/94/212 66/95/213 65/93/214
f 23/94/215 24/96/216 67/97/217 66/95/218
f 24/96/219 25/98/220 68/99/221 67/97/222
f 25/98/223 26/100/224 69/101/225 68/99/226
f 26/100/227 27/102/228 70/103/229 69/101/230
f 27/102/231 28/104/232 71/105/233 70/103/234
f 28/104/235 29/106/236 72/107/237 71/105/238
f 29/106/239 30/108/240 73/109/241 72/107/242
f 30/108/243 16/80/244 59/83/245 73/109/246
f 59/110/247 60/111/248 75/112/249 74/113/250
f 60/111/251 61/114/252 77/115/253 75/112/254
f 61/114/255 62/116/256 78/117/257 77/115/258
f 62/116/259 63/118/260 79/119/261 78/117/262
f 63/118/263 64/120/264 80/121/265 79/119/266
f 64/122/267 65/123/268 81/124/269 80/125/270
f 65/123/271 66/126/272 82/127/273 81/124/274
f 66/126/275 67/128/276 83/129/277 82/127/278
f 67/128/279 68/130/280 84/131/281 83/129/282
f 68/132/283 69/133/284 85/134/285 84/135/286
f 69/133/287 70/136/288 86/137/289 85/134/290
f 70/136/291 71/138/292 87/139/293 86/137/294
f 71/138/295 72/140/296 88/141/297 87/139/298
f 72/142/299 73/143/300 89/144/301 88/145/302
f 73/143/303 59/146/304 74/147/305 89/144/306
f 46/148/307 47/21/308 11/20/309 12/149/310
f 45/150/311 46/148/312 12/149/313 13/151/314
s 3
f 44/152/315 45/150/316 13/151/317 14/153/318
s off
f 27/154/319 26/55/320 33/54/321 32/155/322
f 28/156/323 27/154/324 32/155/325 43/157/326
f 32/155/327 33/54/328 47/21/329 46/148/330
f 43/157/331 32/155/332 46/148/333 45/150/334
s 4
f 57/158/335 1/159/336 2/160/337 56/161/338
s off
f 55/4/339 56/161/340 2/160/341 3/1/342
f 18/72/343 17/162/344 42/163/345 41/71/346
s 5
f 57/164/347 58/76/348 15/79/349 1/19/350
s off
f 41/71/351 42/163/352 56/161/353 55/4/354
s 1
f 38/66/131 37/63/126 22/64/129 21/67/132
s 3
f 91/173/355 29/174/356 28/175/357 90/176/358
f 44/189/315 91/190/355 90/191/358 45/192/316
s 2
f 93/181/359 44/182/184 58/183/183 92/184/360
f 29/165/361 93/166/359 92/167/360 30/168/362
s 5
f 95/169/363 16/170/364 30/171/365 94/172/366
f 57/185/347 95/186/363 94/187/366 58/188/348
s 4
f 97/177/367 17/178/368 16/179/369 96/180/370
f 56/193/338 97/194/367 96/195/370 57/196/335
