# This file uses centimeters as units for non-parametric coordinates.

mtllib Human_leg.mtl
g Human_leg:default1
v -0.317631 -2.389820 0.300000
v 0.282370 -2.389820 0.300000
v -0.317631 0.010180 0.300000
v 0.282370 0.010180 0.300000
v -0.317631 0.010180 -0.300000
v 0.282370 0.010180 -0.300000
v -0.317631 -2.389820 -0.300000
v 0.282370 -2.389820 -0.300000
vt 0.506214 0.001749
vt 0.631772 0.001749
vt 0.631772 0.465338
vt 0.506214 0.465338
vt 0.715950 0.335298
vt 0.788414 0.335298
vt 0.788414 0.407762
vt 0.715950 0.407762
vt 0.506214 0.465338
vt 0.631772 0.465338
vt 0.631772 0.001749
vt 0.506214 0.001749
vt 0.740158 0.073103
vt 0.787997 0.073103
vt 0.787997 0.008574
vt 0.740158 0.008574
vt 0.512271 0.004803
vt 0.630473 0.004803
vt 0.630473 0.471800
vt 0.512271 0.471800
vt 0.630473 0.004803
vt 0.512271 0.004803
vt 0.512271 0.471800
vt 0.630473 0.471800
vn 0.000000 0.000000 1.000000
vn 0.000000 0.000000 1.000000
vn 0.000000 0.000000 1.000000
vn 0.000000 0.000000 1.000000
vn 0.000000 1.000000 0.000000
vn 0.000000 1.000000 0.000000
vn 0.000000 1.000000 0.000000
vn 0.000000 1.000000 0.000000
vn 0.000000 0.000000 -1.000000
vn 0.000000 0.000000 -1.000000
vn 0.000000 0.000000 -1.000000
vn 0.000000 0.000000 -1.000000
vn 0.000000 -1.000000 0.000000
vn 0.000000 -1.000000 0.000000
vn 0.000000 -1.000000 0.000000
vn 0.000000 -1.000000 0.000000
vn 1.000000 0.000000 0.000000
vn 1.000000 0.000000 0.000000
vn 1.000000 0.000000 0.000000
vn 1.000000 0.000000 0.000000
vn -1.000000 0.000000 0.000000
vn -1.000000 0.000000 0.000000
vn -1.000000 0.000000 0.000000
vn -1.000000 0.000000 0.000000
s off
g Human_leg:polySurface7 Human_leg:polySurface14 Human_leg:polySurface1 group1
usemtl initialShadingGroup
f 1/1/1 2/2/2 4/3/3 3/4/4
f 3/5/5 4/6/6 6/7/7 5/8/8
f 5/9/9 6/10/10 8/11/11 7/12/12
f 7/13/13 8/14/14 2/15/15 1/16/16
f 2/17/17 8/18/18 6/19/19 4/20/20
f 7/21/21 1/22/22 3/23/23 5/24/24
