# This file uses centimeters as units for non-parametric coordinates.

mtllib Human_Head.mtl
g Human_Head:default4
v -0.722187 -0.544519 0.724220
v 0.726253 -0.544519 0.724220
v -0.722187 0.662515 0.724220
v 0.726253 0.662515 0.724220
v -0.746064 0.682413 -0.724220
v 0.750129 0.682413 -0.724220
v -0.746064 -0.564415 -0.724220
v 0.750129 -0.564415 -0.724220
vt 0.001842 0.503640
vt 0.496050 0.500482
vt 0.499107 0.999067
vt 0.004899 1.002225
vt 0.256770 0.918789
vt 0.403603 0.918789
vt 0.406023 0.989612
vt 0.254349 0.989612
vt 0.870818 0.932075
vt 0.992573 0.932075
vt 0.992573 0.567137
vt 0.870818 0.567137
vt 0.544028 0.603748
vt 0.803783 0.603748
vt 0.799638 0.531284
vt 0.548173 0.531284
vt 0.506728 0.502128
vt 0.995968 0.502128
vt 0.995968 0.999918
vt 0.506728 0.999918
vt 0.994889 0.505007
vt 0.508415 0.505007
vt 0.508415 0.998297
vt 0.994889 0.998297
vn 0.000000 0.000000 1.000000
vn 0.000000 0.000000 1.000000
vn 0.000000 0.000000 1.000000
vn 0.000000 0.000000 1.000000
vn 0.000000 0.999906 0.013735
vn 0.000000 0.999906 0.013735
vn 0.000000 0.999906 0.013735
vn 0.000000 0.999906 0.013735
vn 0.000000 0.000000 -1.000000
vn 0.000000 0.000000 -1.000000
vn 0.000000 0.000000 -1.000000
vn 0.000000 0.000000 -1.000000
vn 0.000000 -0.999906 0.013735
vn 0.000000 -0.999906 0.013735
vn 0.000000 -0.999906 0.013735
vn 0.000000 -0.999906 0.013735
vn 0.999864 0.000000 0.016482
vn 0.999864 0.000000 0.016482
vn 0.999864 0.000000 0.016482
vn 0.999864 0.000000 0.016482
vn -0.999864 0.000000 0.016482
vn -0.999864 0.000000 0.016482
vn -0.999864 0.000000 0.016482
vn -0.999864 0.000000 0.016482
s off
g Human_Head:initialShadingGroup Human_Head:initialShadingGroup1 Human_Head:polySurface3 Human_Head:polySurface21 Human_Head:polySurface22 Human_Head:polySurface26 Human_Head:polySurface27 Human_Head:polySurface28 Human_Head:polySurface1 group
usemtl lambert2SG
f 1/1/1 2/2/2 4/3/3 3/4/4
f 3/5/5 4/6/6 6/7/7 5/8/8
f 5/9/9 6/10/10 8/11/11 7/12/12
f 7/13/13 8/14/14 2/15/15 1/16/16
f 2/17/17 8/18/18 6/19/19 4/20/20
f 7/21/21 1/22/22 3/23/23 5/24/24
