# This file uses centimeters as units for non-parametric coordinates.

mtllib HumanHead.mtl
g default4
v -0.722187 -0.544519 0.724220
v 0.726253 -0.544519 0.724220
v -0.722187 0.662515 0.724220
v 0.726253 0.662515 0.724220
v -0.746064 0.682413 -0.724220
v 0.750129 0.682413 -0.724220
v -0.746064 -0.564415 -0.724220
v 0.750129 -0.564415 -0.724220
vt 0.001842 0.499611
vt 0.496050 0.496468
vt 0.499107 0.992809
vt 0.004899 0.995952
vt 0.256770 0.918789
vt 0.403603 0.918789
vt 0.406023 0.989612
vt 0.254349 0.989612
vt 0.870818 0.932075
vt 0.992573 0.932075
vt 0.992573 0.567137
vt 0.870818 0.567137
vt 0.544028 0.603748
vt 0.803783 0.603748
vt 0.799638 0.531284
vt 0.548173 0.531284
vt 0.506728 0.502128
vt 0.995968 0.502128
vt 0.995968 0.999918
vt 0.506728 0.999918
vt 0.994889 0.505007
vt 0.508415 0.505007
vt 0.508415 0.998297
vt 0.994889 0.998297
vn 0.000000 0.000000 1.000000
vn 0.000000 0.000000 1.000000
vn 0.000000 0.000000 1.000000
vn 0.000000 0.000000 1.000000
vn 0.000000 0.999906 0.013735
vn 0.000000 0.999906 0.013735
vn 0.000000 0.999906 0.013735
vn 0.000000 0.999906 0.013735
vn 0.000000 0.000000 -1.000000
vn 0.000000 0.000000 -1.000000
vn 0.000000 0.000000 -1.000000
vn 0.000000 0.000000 -1.000000
vn 0.000000 -0.999906 0.013735
vn 0.000000 -0.999906 0.013735
vn 0.000000 -0.999906 0.013735
vn 0.000000 -0.999906 0.013735
vn 0.999864 0.000000 0.016482
vn 0.999864 0.000000 0.016482
vn 0.999864 0.000000 0.016482
vn 0.999864 0.000000 0.016482
vn -0.999864 0.000000 0.016482
vn -0.999864 0.000000 0.016482
vn -0.999864 0.000000 0.016482
vn -0.999864 0.000000 0.016482
s off
g initialShadingGroup initialShadingGroup1 polySurface3 polySurface21 polySurface22 polySurface26 polySurface27 polySurface1
f 1/1/1 2/2/2 4/3/3 3/4/4
f 3/5/5 4/6/6 6/7/7 5/8/8
f 5/9/9 6/10/10 8/11/11 7/12/12
f 7/13/13 8/14/14 2/15/15 1/16/16
f 2/17/17 8/18/18 6/19/19 4/20/20
f 7/21/21 1/22/22 3/23/23 5/24/24
