# This file uses centimeters as units for non-parametric coordinates.

mtllib Human_Arm.mtl
g default2
v -0.395348 -2.430370 0.342665
v 0.328872 -2.430370 0.342665
v -0.395348 -0.016305 0.342665
v 0.328872 -0.016305 0.342665
v -0.395348 -0.016305 -0.381555
v 0.328872 -0.016305 -0.381555
v -0.395348 -2.430370 -0.381555
v 0.328872 -2.430370 -0.381555
vt 0.134437 0.438379
vt 0.010968 0.438838
vt 0.009359 0.006352
vt 0.132828 0.005893
vt 0.113145 0.227967
vt 0.025798 0.228292
vt 0.025230 0.075562
vt 0.112577 0.075237
vt 0.132828 0.005893
vt 0.009359 0.006352
vt 0.010968 0.438838
vt 0.134437 0.438379
vt 0.373704 0.196272
vt 0.283403 0.196608
vt 0.283739 0.286908
vt 0.374040 0.286572
vt 0.126517 0.450445
vt 0.009460 0.450880
vt 0.007798 0.003838
vt 0.124854 0.003402
vt 0.009460 0.450880
vt 0.126517 0.450445
vt 0.124854 0.003402
vt 0.007798 0.003838
vn 0.000000 0.000000 1.000000
vn 0.000000 0.000000 1.000000
vn 0.000000 0.000000 1.000000
vn 0.000000 0.000000 1.000000
vn 0.000000 1.000000 0.000000
vn 0.000000 1.000000 0.000000
vn 0.000000 1.000000 0.000000
vn 0.000000 1.000000 0.000000
vn 0.000000 0.000000 -1.000000
vn 0.000000 0.000000 -1.000000
vn 0.000000 0.000000 -1.000000
vn 0.000000 0.000000 -1.000000
vn 0.000000 -1.000000 0.000000
vn 0.000000 -1.000000 0.000000
vn 0.000000 -1.000000 0.000000
vn 0.000000 -1.000000 0.000000
vn 1.000000 0.000000 0.000000
vn 1.000000 0.000000 0.000000
vn 1.000000 0.000000 0.000000
vn 1.000000 0.000000 0.000000
vn -1.000000 0.000000 0.000000
vn -1.000000 0.000000 0.000000
vn -1.000000 0.000000 0.000000
vn -1.000000 0.000000 0.000000
s off
g initialShadingGroup initialShadingGroup1 initialShadingGroup2 initialShadingGroup3 polySurface3 polySurface16 polySurface17 polySurface18 polySurface19 polySurface24 polySurface28 polySurface34 polySurface35 polySurface1
f 1/1/1 2/2/2 4/3/3 3/4/4
f 3/5/5 4/6/6 6/7/7 5/8/8
f 5/9/9 6/10/10 8/11/11 7/12/12
f 7/13/13 8/14/14 2/15/15 1/16/16
f 2/17/17 8/18/18 6/19/19 4/20/20
f 7/21/21 1/22/22 3/23/23 5/24/24
