# This file uses centimeters as units for non-parametric coordinates.

mtllib Lightbulb.mtl
g default
v -3.061175 0.017729 2.798195
v 3.061175 0.017729 2.798195
v -3.061175 0.325247 2.798195
v 3.061175 0.325247 2.798195
v -3.061175 0.325247 -2.798195
v 3.061175 0.325247 -2.798195
v -3.061175 0.017729 -2.798195
v 3.061175 0.017729 -2.798195
v -1.781998 0.294449 1.994276
v 1.781998 0.294449 1.994276
v -1.781998 0.584032 1.994276
v 1.781998 0.584032 1.994276
v -1.781998 0.584032 -1.994276
v 1.781998 0.584032 -1.994276
v -1.781998 0.294449 -1.994276
v 1.781998 0.294449 -1.994276
vt 0.678685 0.287345
vt 0.697352 0.287345
vt 0.697352 0.306011
vt 0.678685 0.306011
vt 0.682585 0.290026
vt 0.693451 0.290026
vt 0.693451 0.303330
vt 0.682585 0.303330
vt 0.665182 0.657118
vt 0.682515 0.657118
vt 0.682515 0.672806
vt 0.665182 0.672806
vt 0.682515 0.657118
vt 0.665182 0.657118
vt 0.665182 0.672806
vt 0.682515 0.672806
vt 0.667672 0.671234
vt 0.680025 0.671234
vt 0.680025 0.686007
vt 0.667672 0.686007
vt 0.680025 0.671234
vt 0.667672 0.671234
vt 0.667672 0.686007
vt 0.680025 0.686007
vt 0.659673 0.659673
vt 0.686073 0.659673
vt 0.686073 0.674009
vt 0.659673 0.674009
vt 0.659673 0.674009
vt 0.686073 0.674009
vt 0.686073 0.659673
vt 0.659673 0.659673
vt 0.665189 0.672573
vt 0.680557 0.672573
vt 0.680557 0.686073
vt 0.665189 0.686073
vt 0.665189 0.686073
vt 0.680557 0.686073
vt 0.680557 0.672573
vt 0.665189 0.672573
vt 0.000000 1.000000
vt 1.000000 1.000000
vt 1.000000 -0.000000
vt 0.000000 -0.000000
vn 0.000000 0.000000 1.000000
vn 0.000000 0.000000 1.000000
vn 0.000000 0.000000 1.000000
vn 0.000000 0.000000 1.000000
vn 0.000000 1.000000 0.000000
vn 0.000000 1.000000 0.000000
vn 0.000000 1.000000 0.000000
vn 0.000000 1.000000 0.000000
vn 0.000000 0.000000 -1.000000
vn 0.000000 0.000000 -1.000000
vn 0.000000 0.000000 -1.000000
vn 0.000000 0.000000 -1.000000
vn 0.000000 -1.000000 0.000000
vn 0.000000 -1.000000 0.000000
vn 0.000000 -1.000000 0.000000
vn 0.000000 -1.000000 0.000000
vn 1.000000 0.000000 0.000000
vn 1.000000 0.000000 0.000000
vn 1.000000 0.000000 0.000000
vn 1.000000 0.000000 0.000000
vn -1.000000 0.000000 0.000000
vn -1.000000 0.000000 0.000000
vn -1.000000 0.000000 0.000000
vn -1.000000 0.000000 0.000000
vn 0.000000 0.000000 1.000000
vn 0.000000 0.000000 1.000000
vn 0.000000 0.000000 1.000000
vn 0.000000 0.000000 1.000000
vn 0.000000 1.000000 0.000000
vn 0.000000 1.000000 0.000000
vn 0.000000 1.000000 0.000000
vn 0.000000 1.000000 0.000000
vn 0.000000 0.000000 -1.000000
vn 0.000000 0.000000 -1.000000
vn 0.000000 0.000000 -1.000000
vn 0.000000 0.000000 -1.000000
vn 1.000000 0.000000 0.000000
vn 1.000000 0.000000 0.000000
vn 1.000000 0.000000 0.000000
vn 1.000000 0.000000 0.000000
vn -1.000000 0.000000 0.000000
vn -1.000000 0.000000 0.000000
vn -1.000000 0.000000 0.000000
vn -1.000000 0.000000 0.000000
s off
g polySurface1
usemtl lambert2SG
f 1/25/1 2/26/2 4/27/3 3/28/4
f 3/1/5 4/2/6 6/3/7 5/4/8
f 5/29/9 6/30/10 8/31/11 7/32/12
f 7/41/13 8/42/14 2/43/15 1/44/16
f 2/9/17 8/10/18 6/11/19 4/12/20
f 7/13/21 1/14/22 3/15/23 5/16/24
f 9/33/25 10/34/26 12/35/27 11/36/28
f 11/5/29 12/6/30 14/7/31 13/8/32
f 13/37/33 14/38/34 16/39/35 15/40/36
f 10/17/37 16/18/38 14/19/39 12/20/40
f 15/21/41 9/22/42 11/23/43 13/24/44
