# This file uses centimeters as units for non-parametric coordinates.

mtllib Packet_KinderBueno.mtl
g default
v -0.314754 0.000000 0.629508
v 0.314754 0.000000 0.629508
v -0.314754 0.000000 0.582751
v 0.314754 0.000000 0.582751
v -0.314754 0.062951 0.520675
v 0.314754 0.062951 0.520675
v -0.314754 0.062951 -0.520675
v 0.314754 0.062951 -0.520675
v -0.314754 0.000000 -0.582751
v 0.314754 0.000000 -0.582751
v -0.314754 0.000000 -0.629508
v 0.314754 0.000000 -0.629508
v -0.314754 -0.062951 -0.520675
v 0.314754 -0.062951 -0.520675
v -0.314754 -0.062951 0.520675
v 0.314754 -0.062951 0.520675
v 0.347502 0.000000 -0.520675
v 0.347502 0.000000 0.520675
v -0.347502 0.000000 -0.520675
v -0.347502 0.000000 0.520675
vt 0.314060 0.432346
vt 0.304054 0.422199
vt 0.314060 0.422199
vt 0.314060 0.412052
vt 0.481915 0.432346
vt 0.481914 0.422199
vt 0.481914 0.412052
vt 0.491920 0.422199
vt 0.429683 0.425159
vt 0.421297 0.433663
vt 0.421297 0.425159
vt 0.280617 0.433663
vt 0.280617 0.425159
vt 0.421297 0.416655
vt 0.272231 0.425159
vt 0.280617 0.416655
vt 0.892877 0.369019
vt 0.892877 0.240877
vt 0.902395 0.240877
vt 0.902395 0.369019
vt 0.940181 0.401775
vt 0.940181 0.935930
vt 0.056566 0.935930
vt 0.056566 0.401775
vt 0.992854 0.401775
vt 0.992854 0.935930
vt 0.003893 0.935930
vt 0.003893 0.401775
vt 0.227802 0.374226
vt 0.227802 0.146479
vt 0.244718 0.146479
vt 0.244718 0.374226
vt 0.853950 0.341375
vt 0.853950 0.213233
vt 0.863468 0.213233
vt 0.863468 0.341375
vt 0.053776 0.935083
vt 0.053776 0.398688
vt 0.941096 0.398688
vt 0.941096 0.935083
vt 0.000882 0.935083
vt 0.000882 0.398688
vt 0.993990 0.398688
vt 0.993990 0.935083
vt 0.787199 0.341375
vt 0.787199 0.213233
vt 0.796717 0.213233
vt 0.796717 0.341375
vn 0.000000 1.000000 0.000000
vn 0.000000 1.000000 0.000000
vn 0.000000 1.000000 0.000000
vn 0.000000 1.000000 0.000000
vn 0.000000 0.702141 0.712038
vn 0.000000 0.702141 0.712038
vn 0.000000 0.998377 0.056958
vn 0.000000 0.998377 0.056958
vn 0.000000 0.998377 -0.056958
vn 0.000000 0.998377 -0.056958
vn 0.000000 0.702141 -0.712038
vn 0.000000 0.702141 -0.712038
vn 0.000000 1.000000 0.000000
vn 0.000000 1.000000 0.000000
vn 0.000000 1.000000 0.000000
vn 0.000000 1.000000 0.000000
vn 0.000000 -1.000000 0.000000
vn 0.000000 -1.000000 0.000000
vn 0.000000 -1.000000 0.000000
vn 0.000000 -1.000000 0.000000
vn 0.000000 -0.702141 -0.712038
vn 0.000000 -0.702141 -0.712038
vn 0.000000 -0.998377 -0.056958
vn 0.000000 -0.998377 -0.056958
vn 0.000000 -0.998377 0.056958
vn 0.000000 -0.998377 0.056958
vn 0.000000 -0.702141 0.712038
vn 0.000000 -0.702141 0.712038
vn 0.000000 -1.000000 0.000000
vn 0.000000 -1.000000 0.000000
vn 0.000000 -1.000000 0.000000
vn 0.000000 -1.000000 0.000000
vn 0.887036 -0.461448 -0.015240
vn 0.884470 0.000000 -0.466598
vn 0.999668 0.000000 -0.025770
vn 0.887036 -0.461449 0.015240
vn 0.999668 -0.000000 0.025770
vn 0.884470 0.000000 0.466598
vn 0.887036 0.461449 -0.015240
vn 0.887036 0.461448 0.015240
vn -0.884470 0.000000 -0.466598
vn -0.887036 -0.461449 -0.015240
vn -0.999668 -0.000000 -0.025770
vn -0.887036 -0.461448 0.015240
vn -0.999668 0.000000 0.025770
vn -0.884470 0.000000 0.466598
vn -0.887036 0.461448 -0.015240
vn -0.887036 0.461449 0.015240
s 1
g pCube1
usemtl lambert2SG
f 1/17/1 2/18/2 3/20/3
f 3/20/3 2/18/2 4/19/4
s 2
f 3/25/5 4/26/6 5/21/7
f 5/21/7 4/26/6 6/22/8
f 5/21/7 6/22/8 7/24/9
f 7/24/9 6/22/8 8/23/10
f 7/24/9 8/23/10 9/28/11
f 9/28/11 8/23/10 10/27/12
s 3
f 9/29/13 10/30/14 11/32/15
f 11/32/15 10/30/14 12/31/16
s 4
f 11/33/17 12/34/18 9/36/19
f 9/36/19 12/34/18 10/35/20
s 5
f 9/41/21 10/42/22 13/37/23
f 13/37/23 10/42/22 14/38/24
f 13/37/23 14/38/24 15/40/25
f 15/40/25 14/38/24 16/39/26
f 15/40/25 16/39/26 3/44/27
f 3/44/27 16/39/26 4/43/28
s 6
f 3/45/29 4/46/30 1/48/31
f 1/48/31 4/46/30 2/47/32
s 7
f 14/1/33 10/2/34 17/3/35
f 16/5/36 14/1/33 18/6/37
f 18/6/37 14/1/33 17/3/35
f 4/8/38 16/5/36 18/6/37
f 17/3/35 10/2/34 8/4/39
f 18/6/37 17/3/35 6/7/40
f 6/7/40 17/3/35 8/4/39
f 4/8/38 18/6/37 6/7/40
s 8
f 9/9/41 13/10/42 19/11/43
f 13/10/42 15/12/44 19/11/43
f 19/11/43 15/12/44 20/13/45
f 15/12/44 3/15/46 20/13/45
f 9/9/41 19/11/43 7/14/47
f 19/11/43 20/13/45 7/14/47
f 7/14/47 20/13/45 5/16/48
f 20/13/45 3/15/46 5/16/48
