# This file uses centimeters as units for non-parametric coordinates.

mtllib Packet_Snickers.mtl
g default
v -0.113887 0.000000 0.500900
v 0.113887 0.000000 0.500900
v -0.113887 0.000000 0.463695
v 0.113887 0.000000 0.463695
v -0.113887 0.050090 0.414302
v 0.113887 0.050090 0.414302
v -0.113887 0.050090 -0.414302
v 0.113887 0.050090 -0.414302
v -0.113887 0.000000 -0.463695
v 0.113887 0.000000 -0.463695
v -0.113887 0.000000 -0.500900
v 0.113887 0.000000 -0.500900
v -0.113887 -0.050090 -0.414302
v 0.113887 -0.050090 -0.414302
v -0.113887 -0.050090 0.414302
v 0.113887 -0.050090 0.414302
v 0.125736 0.000000 -0.414302
v 0.125736 0.000000 0.414302
v -0.125736 0.000000 -0.414302
v -0.125736 0.000000 0.414302
vt 0.121028 0.568851
vt 0.073848 0.475066
vt 0.121028 0.475066
vt 0.121028 0.381282
vt 0.912500 0.568851
vt 0.912499 0.475066
vt 0.912500 0.381282
vt 0.959679 0.475066
vt 0.070800 0.475461
vt 0.118107 0.380149
vt 0.118107 0.475461
vt 0.911701 0.380149
vt 0.911701 0.475461
vt 0.118107 0.570774
vt 0.959007 0.475461
vt 0.911701 0.570774
vt 0.851949 0.369019
vt 0.851949 0.240877
vt 0.861467 0.240877
vt 0.861467 0.369019
vt 0.874493 0.274724
vt 0.874493 0.729629
vt 0.121976 0.729629
vt 0.121976 0.274724
vt 0.919351 0.274724
vt 0.919351 0.729629
vt 0.077118 0.729629
vt 0.077118 0.274724
vt 0.268730 0.374226
vt 0.268730 0.146479
vt 0.285646 0.146479
vt 0.285646 0.374226
vt 0.814928 0.341375
vt 0.814928 0.213233
vt 0.824446 0.213233
vt 0.824446 0.341375
vt 0.119600 0.728908
vt 0.119600 0.272095
vt 0.875272 0.272095
vt 0.875272 0.728908
vt 0.074553 0.728908
vt 0.074553 0.272095
vt 0.920319 0.272095
vt 0.920319 0.728908
vt 0.826221 0.341375
vt 0.826221 0.213233
vt 0.835739 0.213233
vt 0.835739 0.341375
vn 0.000000 1.000000 0.000000
vn 0.000000 1.000000 0.000000
vn 0.000000 1.000000 0.000000
vn 0.000000 1.000000 0.000000
vn 0.000000 0.702141 0.712038
vn 0.000000 0.702141 0.712038
vn 0.000000 0.998377 0.056958
vn 0.000000 0.998377 0.056958
vn 0.000000 0.998377 -0.056958
vn 0.000000 0.998377 -0.056958
vn 0.000000 0.702141 -0.712038
vn 0.000000 0.702141 -0.712038
vn 0.000000 1.000000 0.000000
vn 0.000000 1.000000 0.000000
vn 0.000000 1.000000 0.000000
vn 0.000000 1.000000 0.000000
vn 0.000000 -1.000000 0.000000
vn 0.000000 -1.000000 0.000000
vn 0.000000 -1.000000 0.000000
vn 0.000000 -1.000000 0.000000
vn 0.000000 -0.702141 -0.712038
vn 0.000000 -0.702141 -0.712038
vn 0.000000 -0.998377 -0.056958
vn 0.000000 -0.998377 -0.056958
vn 0.000000 -0.998377 0.056958
vn 0.000000 -0.998377 0.056958
vn 0.000000 -0.702141 0.712038
vn 0.000000 -0.702141 0.712038
vn 0.000000 -1.000000 0.000000
vn 0.000000 -1.000000 0.000000
vn 0.000000 -1.000000 0.000000
vn 0.000000 -1.000000 0.000000
vn 0.973119 -0.230201 -0.006922
vn 0.972411 0.000000 -0.233276
vn 0.999915 0.000000 -0.013058
vn 0.973118 -0.230201 0.006922
vn 0.999915 -0.000000 0.013058
vn 0.972411 0.000000 0.233276
vn 0.973118 0.230201 -0.006922
vn 0.973119 0.230201 0.006922
vn -0.972411 0.000000 -0.233276
vn -0.973118 -0.230201 -0.006922
vn -0.999915 -0.000000 -0.013058
vn -0.973119 -0.230201 0.006922
vn -0.999915 0.000000 0.013058
vn -0.972411 0.000000 0.233276
vn -0.973119 0.230201 -0.006922
vn -0.973118 0.230201 0.006922
s 1
g pCube1
usemtl lambert2SG
f 1/17/1 2/18/2 3/20/3
f 3/20/3 2/18/2 4/19/4
s 2
f 3/25/5 4/26/6 5/21/7
f 5/21/7 4/26/6 6/22/8
f 5/21/7 6/22/8 7/24/9
f 7/24/9 6/22/8 8/23/10
f 7/24/9 8/23/10 9/28/11
f 9/28/11 8/23/10 10/27/12
s 3
f 9/29/13 10/30/14 11/32/15
f 11/32/15 10/30/14 12/31/16
s 4
f 11/33/17 12/34/18 9/36/19
f 9/36/19 12/34/18 10/35/20
s 5
f 9/41/21 10/42/22 13/37/23
f 13/37/23 10/42/22 14/38/24
f 13/37/23 14/38/24 15/40/25
f 15/40/25 14/38/24 16/39/26
f 15/40/25 16/39/26 3/44/27
f 3/44/27 16/39/26 4/43/28
s 6
f 3/45/29 4/46/30 1/48/31
f 1/48/31 4/46/30 2/47/32
s 7
f 14/1/33 10/2/34 17/3/35
f 16/5/36 14/1/33 18/6/37
f 18/6/37 14/1/33 17/3/35
f 4/8/38 16/5/36 18/6/37
f 17/3/35 10/2/34 8/4/39
f 18/6/37 17/3/35 6/7/40
f 6/7/40 17/3/35 8/4/39
f 4/8/38 18/6/37 6/7/40
s 8
f 9/9/41 13/10/42 19/11/43
f 13/10/42 15/12/44 19/11/43
f 19/11/43 15/12/44 20/13/45
f 15/12/44 3/15/46 20/13/45
f 9/9/41 19/11/43 7/14/47
f 19/11/43 20/13/45 7/14/47
f 7/14/47 20/13/45 5/16/48
f 20/13/45 3/15/46 5/16/48
