# This file uses centimeters as units for non-parametric coordinates.

mtllib Partition.mtl
g default
v -13.272677 -2.765471 10.821945
v -12.272677 -2.765471 10.821945
v -13.272677 7.431921 10.821945
v -12.272677 7.431921 10.821945
v -13.272677 7.431921 -10.733562
v -12.272677 7.431921 -10.733562
v -13.272677 -2.765471 -10.733562
v -12.272677 -2.765471 -10.733562
v -12.272677 -2.765471 10.114200
v -13.272677 -2.765471 10.114200
v -13.272677 7.431921 10.114200
v -12.272677 7.431921 10.114200
v 13.046447 -2.765471 10.114200
v 13.046447 -2.765471 10.821945
v 13.046447 7.431921 10.114200
v 13.046447 7.431921 10.821945
vt 0.375000 0.000000
vt 0.625000 0.000000
vt 0.375000 0.250000
vt 0.625000 0.250000
vt 0.375000 0.500000
vt 0.625000 0.500000
vt 0.375000 0.750000
vt 0.625000 0.750000
vt 0.375000 1.000000
vt 0.625000 1.000000
vt 0.875000 0.000000
vt 0.875000 0.250000
vt 0.125000 0.000000
vt 0.125000 0.250000
vt 0.625000 0.988312
vt 0.636688 0.000000
vt 0.363312 0.000000
vt 0.375000 0.988312
vt 0.363312 0.250000
vt 0.375000 0.261688
vt 0.625000 0.261688
vt 0.636688 0.250000
vt 0.625000 0.000000
vt 0.636688 0.000000
vt 0.636688 0.250000
vt 0.625000 0.250000
vn 0.000000 0.000000 1.000000
vn 0.000000 0.000000 1.000000
vn 0.000000 0.000000 1.000000
vn 0.000000 0.000000 1.000000
vn 0.000000 1.000000 0.000000
vn 0.000000 1.000000 0.000000
vn 0.000000 1.000000 0.000000
vn 0.000000 1.000000 0.000000
vn 0.000000 0.000000 -1.000000
vn 0.000000 0.000000 -1.000000
vn 0.000000 0.000000 -1.000000
vn 0.000000 0.000000 -1.000000
vn 0.000000 -1.000000 0.000000
vn 0.000000 -1.000000 0.000000
vn 0.000000 -1.000000 0.000000
vn 0.000000 -1.000000 0.000000
vn 1.000000 0.000000 0.000000
vn 1.000000 0.000000 0.000000
vn 1.000000 0.000000 0.000000
vn 1.000000 0.000000 0.000000
vn -1.000000 0.000000 0.000000
vn -1.000000 0.000000 0.000000
vn -1.000000 0.000000 0.000000
vn -1.000000 0.000000 0.000000
vn 0.000000 -1.000000 0.000000
vn 0.000000 -1.000000 0.000000
vn -1.000000 0.000000 0.000000
vn -1.000000 0.000000 0.000000
vn 0.000000 1.000000 0.000000
vn 0.000000 1.000000 0.000000
vn 1.000000 0.000000 0.000000
vn 1.000000 0.000000 0.000000
vn 1.000000 0.000000 0.000000
vn 1.000000 0.000000 0.000000
vn 0.000000 -1.000000 0.000000
vn 0.000000 -1.000000 0.000000
vn 0.000000 -1.000000 0.000000
vn 0.000000 -1.000000 0.000000
vn 0.000000 0.000000 -1.000000
vn 0.000000 0.000000 -1.000000
vn 0.000000 0.000000 -1.000000
vn 0.000000 0.000000 -1.000000
vn 0.000000 1.000000 0.000000
vn 0.000000 1.000000 0.000000
vn 0.000000 1.000000 0.000000
vn 0.000000 1.000000 0.000000
vn 0.000000 0.000000 1.000000
vn 0.000000 0.000000 1.000000
vn 0.000000 0.000000 1.000000
vn 0.000000 0.000000 1.000000
s off
g pCube1
usemtl initialShadingGroup
f 1/1/1 2/2/2 4/4/3 3/3/4
s 1
f 11/20/5 12/21/6 6/6/7 5/5/8
s off
f 5/5/9 6/6/10 8/8/11 7/7/12
s 2
f 7/7/13 8/8/14 9/15/15 10/18/16
s off
f 12/22/17 9/16/18 8/11/19 6/12/20
s 3
f 7/13/21 10/17/22 11/19/23 5/14/24
s 2
f 10/18/16 9/15/15 2/10/25 1/9/26
s 3
f 11/19/23 10/17/22 1/1/27 3/3/28
s 1
f 3/3/29 4/4/30 12/21/6 11/20/5
s off
f 14/23/31 13/24/32 15/25/33 16/26/34
f 2/2/35 9/16/36 13/24/37 14/23/38
f 9/16/39 12/22/40 15/25/41 13/24/42
f 12/22/43 4/4/44 16/26/45 15/25/46
f 4/4/47 2/2/48 14/23/49 16/26/50
