# This file uses centimeters as units for non-parametric coordinates.

mtllib Sensor.mtl
g default
v -1.054671 0.000978 0.175596
v 1.020216 0.000978 0.175596
v -1.054671 6.373022 0.175596
v 1.020216 6.373022 0.175596
v -1.054671 6.373022 -0.175596
v 1.020216 6.373022 -0.175596
v -1.054671 0.000978 -0.175596
v 1.020216 0.000978 -0.175596
vt 0.003706 0.009505
vt 0.492543 0.009505
vt 0.492543 0.990495
vt 0.003706 0.990495
vt 0.003706 0.990495
vt 0.492543 0.990495
vt 0.492543 0.009505
vt 0.003706 0.009505
vt 0.478405 0.060197
vt 0.521595 0.060197
vt 0.521595 0.939803
vt 0.478405 0.939803
vt 0.521595 0.060197
vt 0.478405 0.060197
vt 0.478405 0.939803
vt 0.521595 0.939803
vt 0.326329 0.012673
vt 0.388529 0.012673
vt 0.388529 0.312491
vt 0.326329 0.312491
vt 0.326329 0.312491
vt 0.388529 0.312491
vt 0.388529 0.012673
vt 0.326329 0.012673
vn 0.000000 0.000000 1.000000
vn 0.000000 0.000000 1.000000
vn 0.000000 0.000000 1.000000
vn 0.000000 0.000000 1.000000
vn 0.000000 1.000000 0.000000
vn 0.000000 1.000000 0.000000
vn 0.000000 1.000000 0.000000
vn 0.000000 1.000000 0.000000
vn 0.000000 0.000000 -1.000000
vn 0.000000 0.000000 -1.000000
vn 0.000000 0.000000 -1.000000
vn 0.000000 0.000000 -1.000000
vn 0.000000 -1.000000 0.000000
vn 0.000000 -1.000000 0.000000
vn 0.000000 -1.000000 0.000000
vn 0.000000 -1.000000 0.000000
vn 1.000000 0.000000 0.000000
vn 1.000000 0.000000 0.000000
vn 1.000000 0.000000 0.000000
vn 1.000000 0.000000 0.000000
vn -1.000000 0.000000 0.000000
vn -1.000000 0.000000 0.000000
vn -1.000000 0.000000 0.000000
vn -1.000000 0.000000 0.000000
s off
g pCube1
usemtl lambert2SG
f 1/1/1 2/2/2 4/3/3 3/4/4
f 3/17/5 4/18/6 6/19/7 5/20/8
f 5/5/9 6/6/10 8/7/11 7/8/12
f 7/21/13 8/22/14 2/23/15 1/24/16
f 2/9/17 8/10/18 6/11/19 4/12/20
f 7/13/21 1/14/22 3/15/23 5/16/24
