# This file uses centimeters as units for non-parametric coordinates.

mtllib Wall&Floor.mtl
g default
v -45.539818 -2.099273 64.706711
v -45.539818 -2.099273 -37.337494
v -45.539818 7.827148 64.706711
v -45.539818 7.827149 -37.337494
v -47.299965 7.827148 64.706711
v -47.299965 7.827149 -37.337494
v -47.299965 -2.099273 64.706711
v -47.299965 -2.099273 -37.337494
v -45.539818 7.827148 -35.758675
v -45.539818 -2.099273 -35.758675
v 43.265102 -2.099273 -37.337494
v 43.265102 -2.099273 64.706711
v 43.265102 7.827149 -37.337494
v 43.265102 7.827148 64.706711
v 45.025253 7.827149 -37.337494
v 45.025253 7.827148 64.706711
v 45.025253 -2.099273 -37.337494
v 45.025253 -2.099273 64.706711
v 43.265102 7.827148 -35.758675
v 43.265102 -2.099273 -35.758675
v -47.299965 -3.713160 64.706711
v -47.299965 -3.713160 -37.337494
v -45.539818 -3.713160 -37.337494
v -45.539818 -3.713160 64.706711
v 45.025253 -3.713160 -37.337494
v 45.025253 -3.713160 64.706711
v 43.265102 -3.713160 64.706711
v 43.265102 -3.713160 -37.337494
vt 0.000000 0.000000
vt 0.500000 0.000000
vt 0.500000 1.000000
vt 0.000000 1.000000
vt 1.000000 1.000000
vt 1.000000 2.000000
vt 0.000000 2.000000
vt 1.000000 3.000000
vt 0.000000 3.000000
vt 0.000000 3.000000
vt 1.000000 3.000000
vt 1.000000 4.000000
vt 0.000000 4.000000
vt 1.000000 0.000000
vt 2.000000 0.000000
vt 2.000000 1.000000
vt -1.000000 0.000000
vt -1.000000 1.000000
vt 0.000000 1.000000
vt 0.500000 1.000000
vt 1.000000 1.000000
vt 1.000000 2.000000
vt 0.000000 2.000000
vt 1.000000 3.000000
vt 0.000000 3.000000
vt 0.000000 3.000000
vt 1.000000 3.000000
vt 1.000000 4.000000
vt 0.000000 4.000000
vt 1.000000 0.000000
vt 2.000000 0.000000
vt 2.000000 1.000000
vt -1.000000 0.000000
vt 0.000000 0.000000
vt -1.000000 1.000000
vt 0.500000 0.000000
vt 0.500000 4.000000
vt 1.000000 4.000000
vt 0.000000 4.000000
vt 0.500000 4.000000
vt 0.000000 4.000000
vt 1.000000 4.000000
vn 1.000000 0.000000 0.000000
vn 1.000000 0.000000 0.000000
vn 1.000000 0.000000 0.000000
vn 1.000000 0.000000 0.000000
vn 0.000000 1.000000 0.000000
vn 0.000000 1.000000 0.000000
vn 0.000000 1.000000 0.000000
vn 0.000000 1.000000 0.000000
vn 0.000000 1.000000 0.000000
vn -1.000000 0.000000 0.000000
vn -1.000000 0.000000 0.000000
vn -1.000000 0.000000 0.000000
vn -1.000000 0.000000 0.000000
vn 0.000000 -1.000000 0.000000
vn 0.000000 -1.000000 0.000000
vn 0.000000 -1.000000 0.000000
vn 0.000000 -1.000000 0.000000
vn 0.000000 0.000000 -1.000000
vn 0.000000 0.000000 -1.000000
vn 0.000000 0.000000 -1.000000
vn 0.000000 0.000000 -1.000000
vn 0.000000 0.000000 1.000000
vn 0.000000 0.000000 1.000000
vn 0.000000 0.000000 1.000000
vn 0.000000 0.000000 1.000000
vn -0.000000 1.000000 0.000000
vn -0.000000 1.000000 0.000000
vn -0.000000 1.000000 0.000000
vn -0.000000 1.000000 0.000000
vn -0.000000 1.000000 0.000000
vn 1.000000 0.000000 0.000000
vn 1.000000 0.000000 0.000000
vn 1.000000 0.000000 0.000000
vn 1.000000 0.000000 0.000000
vn 0.000000 -1.000000 0.000000
vn 0.000000 -1.000000 0.000000
vn 0.000000 -1.000000 0.000000
vn 0.000000 -1.000000 0.000000
vn 0.000000 0.000000 1.000000
vn 0.000000 0.000000 1.000000
vn 0.000000 0.000000 1.000000
vn 0.000000 0.000000 1.000000
vn 0.000000 0.000000 -1.000000
vn 0.000000 0.000000 -1.000000
vn 0.000000 0.000000 -1.000000
vn 0.000000 0.000000 -1.000000
vn -1.000000 0.000000 0.000000
vn -1.000000 0.000000 0.000000
vn -1.000000 0.000000 0.000000
vn -1.000000 0.000000 0.000000
vn 0.000000 0.000000 1.000000
vn 0.000000 0.000000 1.000000
vn 0.000000 0.000000 1.000000
vn 0.000000 0.000000 1.000000
vn 0.000000 -1.000000 0.000000
vn 0.000000 -1.000000 0.000000
vn 0.000000 -1.000000 0.000000
vn 0.000000 -1.000000 0.000000
vn -1.000000 0.000000 0.000000
vn -1.000000 0.000000 0.000000
vn 0.000000 0.000000 -1.000000
vn 0.000000 0.000000 -1.000000
vn 0.000000 0.000000 1.000000
vn 0.000000 0.000000 1.000000
vn 1.000000 0.000000 0.000000
vn 1.000000 0.000000 0.000000
vn 0.000000 0.000000 1.000000
vn 0.000000 0.000000 1.000000
vn 0.000000 0.000000 -1.000000
vn 0.000000 0.000000 -1.000000
vn 0.000000 1.000000 0.000000
vn 0.000000 1.000000 0.000000
vn 0.000000 1.000000 0.000000
vn 0.000000 1.000000 0.000000
vn 0.000000 1.000000 0.000000
vn 0.000000 1.000000 0.000000
s off
g polySurface2 pCube326
usemtl initialShadingGroup
f 1/1/1 10/2/2 9/3/3 3/4/4
s 1
f 3/4/5 9/3/6 4/5/7 6/6/8 5/7/9
s 2
f 5/7/10 6/6/11 8/8/12 7/9/13
s 3
f 21/10/14 22/11/15 23/12/16 24/13/17
s 4
f 2/14/18 8/15/19 6/16/20 4/5/21
s 5
f 7/17/22 1/1/23 3/4/24 5/18/25
s 1
f 13/19/26 19/20/27 14/21/28 16/22/29 15/23/30
s 6
f 15/23/31 16/22/32 18/24/33 17/25/34
s 3
f 25/26/35 26/27/36 27/28/37 28/29/38
s 5
f 12/30/39 18/31/40 16/32/41 14/21/42
s 4
f 17/33/43 11/34/44 13/19/45 15/35/46
s off
f 19/20/47 20/36/48 12/30/49 14/21/50
s 1
f 4/5/7 9/3/6 19/20/27 13/19/26
s off
f 9/3/51 10/2/52 20/36/53 19/20/54
f 10/37/55 2/38/56 11/39/57 20/40/58
s 4
f 2/14/18 4/5/21 13/19/45 11/34/44
s 2
f 7/9/13 8/8/12 22/11/59 21/10/60
s 4
f 8/8/19 2/38/18 23/12/61 22/11/62
s 5
f 1/41/23 7/9/22 21/10/63 24/13/64
s 6
f 17/25/34 18/24/33 26/27/65 25/26/66
s 5
f 18/24/40 12/42/39 27/28/67 26/27/68
s 4
f 11/39/44 17/25/43 25/26/69 28/29/70
s off
f 10/2/71 1/1/72 12/30/73 20/36/74
s 5
f 1/41/23 24/13/64 27/28/67 12/42/39
s 3
f 24/13/17 23/12/16 28/29/38 27/28/37
s 4
f 23/12/61 2/38/18 11/39/44 28/29/70
s off
f 2/38/75 10/37/71 20/40/74 11/39/76
