# This file uses centimeters as units for non-parametric coordinates.

mtllib Wall2.mtl
g Wall2:default2
v -45.539818 -2.809002 62.361618
v -45.539818 -2.809002 -39.682587
v -45.539818 8.536877 62.361618
v -45.539818 8.536878 -39.682587
v -47.299965 8.536877 62.361618
v -47.299965 8.536878 -39.682587
v -47.299965 -2.809002 62.361618
v -47.299965 -2.809002 -39.682587
v -45.539818 8.536877 -38.103767
v -45.539818 -2.809002 -38.103767
v 43.265102 -2.809002 -39.682587
v 43.265102 -2.809002 62.361618
v 43.265102 8.536878 -39.682587
v 43.265102 8.536877 62.361618
v 45.025253 8.536878 -39.682587
v 45.025253 8.536877 62.361618
v 45.025253 -2.809002 -39.682587
v 45.025253 -2.809002 62.361618
v 43.265102 8.536877 -38.103767
v 43.265102 -2.809002 -38.103767
v -47.299965 -3.713160 62.361618
v -47.299965 -3.713160 -39.682587
v -45.539818 -3.713160 -39.682587
v -45.539818 -3.713160 62.361618
v 45.025253 -3.713160 -39.682587
v 45.025253 -3.713160 62.361618
v 43.265102 -3.713160 62.361618
v 43.265102 -3.713160 -39.682587
v -45.539818 7.467000 -38.103767
v -45.539818 7.467000 62.361618
v -47.299965 7.467000 62.361618
v -47.299965 7.467001 -39.682587
v -45.539818 7.467001 -39.682587
v 43.265102 7.467001 -39.682587
v 45.025253 7.467001 -39.682587
v 45.025253 7.467000 62.361618
v 43.265102 7.467000 62.361618
v 43.265102 7.467000 -38.103767
v -45.539818 7.467000 62.362862
v -45.539818 8.536877 62.362862
v 43.265102 7.467000 62.362862
v 43.265102 8.536877 62.362862
v -54.156048 8.478540 58.761524
v 50.843956 8.478540 58.761539
v 50.843964 8.478540 -46.238464
v -54.156040 8.478540 -46.238468
v -1.656040 79.189217 6.261534
vt 0.513479 0.500119
vt 0.992936 0.500119
vt 0.992936 0.950509
vt 0.513479 0.950509
vt 0.513479 0.950509
vt 1.000471 0.950509
vt 1.000471 0.500119
vt 0.513479 0.500119
vt 0.605792 0.092643
vt 0.605792 0.404471
vt 0.611737 0.404471
vt 0.611737 0.092643
vt 0.508656 0.500119
vt 0.508656 0.950509
vt 1.000471 0.950509
vt 0.513479 0.950509
vt 0.513479 0.500119
vt 1.000471 0.500119
vt 0.917619 0.404471
vt 0.917619 0.092643
vt 0.911675 0.092643
vt 0.911675 0.404471
vt 0.513479 0.500119
vt 0.513479 0.950509
vt 0.508656 0.500119
vt 0.508656 0.950509
vt 0.992936 0.950509
vt 0.992936 0.500119
vt 0.530093 0.483129
vt 0.530093 0.026587
vt 0.986635 0.026587
vt 0.986635 0.483129
vt 0.527374 0.485454
vt 0.949854 0.485454
vt 0.949854 0.062975
vt 0.527374 0.062975
vt 0.517327 0.490370
vt 0.526254 0.490370
vt 0.526254 0.022139
vt 0.517327 0.022139
vt 0.573250 0.414734
vt 0.567305 0.414734
vt 0.567305 0.102906
vt 0.573250 0.102906
vt 0.949782 0.469988
vt 0.532577 0.469988
vt 0.532577 0.052783
vt 0.949782 0.052783
vt 0.879133 0.414734
vt 0.873188 0.414734
vt 0.873188 0.102906
vt 0.879133 0.102906
vt 0.976631 0.490370
vt 0.985558 0.490370
vt 0.985558 0.022139
vt 0.976631 0.022139
vt 0.007930 0.994603
vt 0.007930 0.502860
vt 0.495981 0.502860
vt 0.495981 0.994603
vt 0.712936 0.471999
vt 0.730185 0.471999
vt 0.730185 0.066329
vt 0.712936 0.066329
vt 0.692508 0.032128
vt 0.709757 0.032128
vt 0.709757 0.461258
vt 0.692508 0.461258
vt 0.513479 0.997401
vt 0.513479 0.997401
vt 1.000471 0.997401
vt 0.508656 0.997401
vt 0.508656 0.997401
vt 1.000471 0.997401
vt 0.513479 0.997401
vt 0.513479 0.997401
vt 0.024304 0.495971
vt 0.024304 0.004459
vt 0.075691 0.004459
vt 0.075691 0.495971
vt 0.002564 0.498627
vt 0.500656 0.498627
vt 0.500656 0.002200
vt 0.002564 0.002200
vt 0.500656 0.498627
vt 0.002564 0.498627
vt 0.002564 0.002200
vt 0.500656 0.002200
vt 0.639006 0.088219
vt 0.863206 0.087803
vt 0.863645 0.299934
vt 0.639446 0.300350
vt 0.622731 0.119237
vt 0.686064 0.119237
vt 0.749397 0.362571
vt 0.749397 0.119237
vt 0.812731 0.119237
vt 0.876064 0.119237
vn 1.000000 0.000000 0.000000
vn 1.000000 0.000000 0.000000
vn 1.000000 0.000000 0.000000
vn 1.000000 0.000000 0.000000
vn -1.000000 0.000000 0.000000
vn -1.000000 0.000000 0.000000
vn -1.000000 0.000000 0.000000
vn -1.000000 0.000000 0.000000
vn 0.000000 -1.000000 0.000000
vn 0.000000 -1.000000 0.000000
vn 0.000000 -1.000000 0.000000
vn 0.000000 -1.000000 0.000000
vn 0.000000 0.000000 -1.000000
vn 0.000000 0.000000 -1.000000
vn 0.000000 0.000000 -1.000000
vn 0.000000 0.000000 -1.000000
vn 0.000000 0.000000 1.000000
vn 0.000000 0.000000 1.000000
vn 0.000000 0.000000 1.000000
vn 0.000000 0.000000 1.000000
vn 1.000000 0.000000 0.000000
vn 1.000000 0.000000 0.000000
vn 1.000000 0.000000 0.000000
vn 1.000000 0.000000 0.000000
vn 0.000000 -1.000000 0.000000
vn 0.000000 -1.000000 0.000000
vn 0.000000 -1.000000 0.000000
vn 0.000000 -1.000000 0.000000
vn 0.000000 0.000000 1.000000
vn 0.000000 0.000000 1.000000
vn 0.000000 0.000000 1.000000
vn 0.000000 0.000000 1.000000
vn 0.000000 0.000000 -1.000000
vn 0.000000 0.000000 -1.000000
vn 0.000000 0.000000 -1.000000
vn 0.000000 0.000000 -1.000000
vn -1.000000 0.000000 0.000000
vn -1.000000 0.000000 0.000000
vn -1.000000 0.000000 0.000000
vn -1.000000 0.000000 0.000000
vn 0.000000 1.000000 0.000000
vn 0.000000 1.000000 0.000000
vn 0.000000 1.000000 0.000000
vn 0.000000 1.000000 0.000000
vn 0.000000 0.000000 1.000000
vn 0.000000 0.000000 1.000000
vn 0.000000 0.000000 1.000000
vn 0.000000 0.000000 1.000000
vn 0.000000 0.000000 -1.000000
vn 0.000000 0.000000 -1.000000
vn 0.000000 0.000000 -1.000000
vn 0.000000 0.000000 -1.000000
vn -1.000000 0.000000 0.000000
vn -1.000000 0.000000 0.000000
vn -1.000000 0.000000 0.000000
vn -1.000000 0.000000 0.000000
vn 0.000000 0.000000 -1.000000
vn 0.000000 0.000000 -1.000000
vn 0.000000 0.000000 -1.000000
vn 0.000000 0.000000 -1.000000
vn 0.000000 0.000000 1.000000
vn 0.000000 0.000000 1.000000
vn 0.000000 0.000000 1.000000
vn 0.000000 0.000000 1.000000
vn 1.000000 0.000000 0.000000
vn 1.000000 0.000000 0.000000
vn 1.000000 0.000000 0.000000
vn 1.000000 0.000000 0.000000
vn 0.000000 0.000000 1.000000
vn 0.000000 0.000000 1.000000
vn 0.000000 0.000000 1.000000
vn 0.000000 0.000000 1.000000
vn 0.000000 0.000000 -1.000000
vn 0.000000 0.000000 -1.000000
vn 0.000000 0.000000 -1.000000
vn 0.000000 0.000000 -1.000000
vn 0.000000 1.000000 0.000000
vn 0.000000 1.000000 0.000000
vn 0.000000 1.000000 0.000000
vn 0.000000 1.000000 0.000000
vn 0.000000 0.000000 1.000000
vn 0.000000 0.000000 1.000000
vn 0.000000 0.000000 1.000000
vn 0.000000 0.000000 1.000000
vn 0.000000 -1.000000 0.000000
vn 0.000000 -1.000000 0.000000
vn 0.000000 -1.000000 0.000000
vn 0.000000 -1.000000 0.000000
vn 0.000000 0.000000 -1.000000
vn 0.000000 0.000000 -1.000000
vn 0.000000 0.000000 -1.000000
vn 0.000000 0.000000 -1.000000
vn 0.000000 1.000000 0.000000
vn 0.000000 1.000000 0.000000
vn 0.000000 1.000000 0.000000
vn 0.000000 1.000000 0.000000
vn 0.000000 1.000000 0.000000
vn 0.000000 1.000000 0.000000
vn 0.000000 1.000000 0.000000
vn 0.000000 1.000000 0.000000
vn 0.000000 0.000000 1.000000
vn 0.000000 0.000000 1.000000
vn 0.000000 0.000000 1.000000
vn 0.000000 0.000000 1.000000
vn -1.000000 0.000000 0.000000
vn -1.000000 0.000000 0.000000
vn -1.000000 0.000000 0.000000
vn -1.000000 0.000000 0.000000
vn 0.000000 0.000000 -1.000000
vn 0.000000 0.000000 -1.000000
vn 0.000000 0.000000 -1.000000
vn 0.000000 0.000000 -1.000000
vn 0.000000 0.000000 -1.000000
vn 0.000000 0.000000 -1.000000
vn 0.000000 0.000000 -1.000000
vn 0.000000 0.000000 -1.000000
vn 0.000000 0.000000 -1.000000
vn 0.000000 0.000000 -1.000000
vn 0.000000 0.000000 -1.000000
vn 0.000000 0.000000 -1.000000
vn 1.000000 0.000000 0.000000
vn 1.000000 0.000000 0.000000
vn 1.000000 0.000000 0.000000
vn 1.000000 0.000000 0.000000
vn 0.000000 0.000000 1.000000
vn 0.000000 0.000000 1.000000
vn 0.000000 0.000000 1.000000
vn 0.000000 0.000000 1.000000
vn 0.000000 0.000000 1.000000
vn 0.000000 0.000000 1.000000
vn 0.000000 0.000000 1.000000
vn 0.000000 0.000000 1.000000
vn 0.000000 -1.000000 0.000000
vn 0.000000 -1.000000 0.000000
vn 0.000000 -1.000000 0.000000
vn 0.000000 -1.000000 0.000000
vn 0.000000 1.000000 0.000000
vn 0.000000 1.000000 0.000000
vn 0.000000 0.000000 1.000000
vn 0.000000 0.000000 1.000000
vn 0.000000 -1.000000 0.000000
vn 0.000000 -1.000000 0.000000
vn 0.000000 -1.000000 0.000000
vn 0.000000 -1.000000 0.000000
vn 0.000000 0.596120 0.802896
vn 0.000000 0.596120 0.802896
vn 0.000000 0.596120 0.802896
vn 0.802896 0.596120 0.000000
vn 0.802896 0.596120 0.000000
vn 0.802896 0.596120 0.000000
vn 0.000000 0.596120 -0.802896
vn 0.000000 0.596120 -0.802896
vn 0.000000 0.596120 -0.802896
vn -0.802896 0.596120 0.000000
vn -0.802896 0.596120 0.000000
vn -0.802896 0.596120 0.000000
s off
g Wall2:pCube326 Wall2:polySurface2 Wall2:polySurface3 Wall2:polySurface28 Bench:Bench:polySurface758
usemtl initialShadingGroup
f 1/1/1 10/2/2 29/3/3 30/4/4
f 31/5/5 32/6/6 8/7/7 7/8/8
f 21/9/9 22/10/10 23/11/11 24/12/12
f 2/13/13 8/7/14 32/6/15 33/14/16
f 7/8/17 1/1/18 30/4/19 31/5/20
f 35/15/21 36/16/22 18/17/23 17/18/24
f 25/19/25 26/20/26 27/21/27 28/22/28
f 12/23/29 18/17/30 36/16/31 37/24/32
f 17/18/33 11/25/34 34/26/35 35/15/36
f 38/27/37 20/28/38 12/23/39 37/24/40
f 4/29/41 9/30/42 19/31/43 13/32/44
f 38/27/45 29/3/46 10/2/47 20/28/48
f 2/13/49 33/14/50 34/26/51 11/25/52
f 7/33/53 8/34/54 22/35/55 21/36/56
f 8/37/57 2/38/58 23/39/59 22/40/60
f 1/41/61 7/42/62 21/43/63 24/44/64
f 17/45/65 18/46/66 26/47/67 25/48/68
f 18/49/69 12/50/70 27/51/71 26/52/72
f 11/53/73 17/54/74 25/55/75 28/56/76
f 10/57/77 1/58/78 12/59/79 20/60/80
f 1/41/81 24/44/82 27/51/83 12/50/84
f 24/12/85 23/11/86 28/22/87 27/21/88
f 23/39/89 2/38/90 11/53/91 28/56/92
g Wall2:polySurface3 Wall2:polySurface28 Bench:Bench:polySurface758
f 15/61/93 13/62/94 14/63/95 16/64/96
f 5/65/97 3/66/98 4/67/99 6/68/100
g Wall2:pCube326 Wall2:polySurface2 Wall2:polySurface3 Wall2:polySurface28 Bench:Bench:polySurface758
f 31/5/101 30/4/102 3/69/103 5/70/104
f 5/70/105 6/71/106 32/6/107 31/5/108
f 33/14/109 32/6/110 6/71/111 4/72/112
f 34/26/113 33/14/114 4/72/115 13/73/116
f 35/15/117 34/26/118 13/73/119 15/74/120
f 15/74/121 16/75/122 36/16/123 35/15/124
f 37/24/125 36/16/126 16/75/127 14/76/128
f 40/77/129 39/78/130 41/79/131 42/80/132
f 29/81/133 38/82/134 41/83/135 39/84/136
f 19/85/137 9/86/138 40/87/139 42/88/140
g Wall2:polySurface3 Wall2:polySurface28 Bench:Bench:polySurface758
f 43/89/141 46/90/142 45/91/143 44/92/144
f 43/93/145 44/94/146 47/95/147
f 44/94/148 45/96/149 47/95/150
f 45/96/151 46/97/152 47/95/153
f 46/97/154 43/98/155 47/95/156
